<svg xmlns="http://www.w3.org/2000/svg" viewBox="0 0 500 500"><g id="freepik--Background--inject-13"><path id="freepik--background--inject-13" d="M385.25,67.41C348,36.12,295,20.92,250,20.79c-45,.13-98,15.33-135.25,46.62C39.28,130.73,11.66,206.1,11.66,312.64h0c0,42.29,23.27,84.58,69.81,116.84,93.07,64.53,244,64.53,337,0,46.54-32.26,69.81-74.55,69.81-116.84h0C488.34,206.1,460.72,130.73,385.25,67.41Z" style="fill:#455a64"></path></g><g id="freepik--Snow--inject-13"><path d="M444.43,165.93a.94.94,0,0,0-.18,1.1l-1.82,1.82-.44-5a.31.31,0,0,0-.32-.27.29.29,0,0,0-.27.32l.43,5-2.64-2.64a1,1,0,1,0-1.53.24,1,1,0,0,0,1.11.18l2.64,2.64-5-.43a.29.29,0,0,0-.32.27.3.3,0,0,0,.27.32l5,.44-1.82,1.82a1,1,0,1,0,.42.42l1.92-1.92.45,5.23a.3.3,0,0,0,.33.27.25.25,0,0,0,.18-.08.34.34,0,0,0,.09-.24l-.44-4.94,2.53,2.53a1,1,0,0,0,.18,1.1,1,1,0,1,0,.24-1.52L443,170l4.95.43a.3.3,0,0,0,.24-.09.3.3,0,0,0,.08-.18.28.28,0,0,0-.27-.32l-5.23-.46,1.92-1.92a.94.94,0,0,0,1.1-.18.95.95,0,1,0-1.34-1.34Z" style="fill:#e0e0e0"></path><path d="M329.1,55.33a.94.94,0,0,0-.18,1.1l-1.82,1.82-.44-5a.3.3,0,1,0-.59.05l.43,4.95-2.64-2.64a1,1,0,0,0-.18-1.11,1,1,0,0,0-1.35,1.35,1,1,0,0,0,1.11.18l2.64,2.64-4.95-.43a.29.29,0,0,0-.32.27.3.3,0,0,0,.27.32l5,.44-1.82,1.82a1,1,0,1,0,.24,1.53,1,1,0,0,0,.18-1.11l1.92-1.92.46,5.23a.28.28,0,0,0,.32.27.3.3,0,0,0,.18-.08.3.3,0,0,0,.09-.24l-.43-5,2.53,2.53a.94.94,0,0,0,.17,1.11,1,1,0,0,0,1.35-1.35,1,1,0,0,0-1.1-.18l-2.53-2.53,4.94.44a.3.3,0,0,0,.24-.09.25.25,0,0,0,.08-.18.28.28,0,0,0-.27-.32l-5.23-.46,1.92-1.92a1,1,0,0,0,1.11-.18,1,1,0,0,0-1.35-1.34Z" style="fill:#e0e0e0"></path><path d="M360.05,107.74a.94.94,0,0,0-.17,1.1l-1.83,1.83-.44-5a.29.29,0,0,0-.32-.27.29.29,0,0,0-.27.32l.43,4.94L354.81,108a1,1,0,1,0-1.52.25.94.94,0,0,0,1.1.17l2.64,2.64-4.94-.43a.29.29,0,0,0-.32.27.28.28,0,0,0,.27.32l5,.44-1.83,1.83a.94.94,0,0,0-1.1.17,1,1,0,1,0,1.35,1.35.94.94,0,0,0,.17-1.1l1.92-1.92.46,5.23a.3.3,0,0,0,.32.27.28.28,0,0,0,.18-.09.29.29,0,0,0,.09-.24l-.43-4.94,2.53,2.53a.94.94,0,0,0,.17,1.1,1,1,0,0,0,1.35-1.35.94.94,0,0,0-1.1-.17l-2.53-2.53,4.94.43a.28.28,0,0,0,.24-.08.34.34,0,0,0,.09-.19.3.3,0,0,0-.27-.32l-5.23-.46,1.92-1.92a1,1,0,0,0,1.1-.17,1,1,0,1,0-1.35-1.35Z" style="fill:#e0e0e0"></path><path d="M219.87,44.23a.94.94,0,0,0-.17,1.1l-1.83,1.83-.44-5a.29.29,0,0,0-.32-.27.29.29,0,0,0-.27.32l.43,4.94-2.64-2.64a1,1,0,1,0-1.52.25.94.94,0,0,0,1.1.17l2.64,2.64-4.94-.43a.29.29,0,0,0-.32.27.28.28,0,0,0,.27.32l5,.44L215.05,50a.94.94,0,0,0-1.1.17,1,1,0,1,0,1.35,1.35.94.94,0,0,0,.17-1.1l1.92-1.92.46,5.23a.3.3,0,0,0,.32.27.28.28,0,0,0,.18-.09.29.29,0,0,0,.09-.24L218,48.71l2.53,2.53a.94.94,0,0,0,.17,1.1A1,1,0,0,0,222.06,51a.94.94,0,0,0-1.1-.17l-2.53-2.53,4.94.43a.28.28,0,0,0,.24-.08.34.34,0,0,0,.09-.19.3.3,0,0,0-.27-.32l-5.23-.46,1.92-1.92a1,1,0,0,0,1.1-.17,1,1,0,1,0-1.35-1.35Z" style="fill:#e0e0e0"></path><path d="M255.73,85.65a1,1,0,0,0-.18,1.11l-1.82,1.82-.44-5a.3.3,0,0,0-.59,0l.43,5-2.64-2.65a.94.94,0,1,0-.42.43L252.71,89l-4.94-.43a.3.3,0,0,0-.33.27.31.31,0,0,0,.27.32l5,.44-1.82,1.82a1,1,0,0,0-1.1.18.93.93,0,0,0,0,1.34.94.94,0,0,0,1.35,0,1,1,0,0,0,.17-1.1l1.92-1.92.46,5.23a.29.29,0,0,0,.32.27.27.27,0,0,0,.18-.08.3.3,0,0,0,.09-.24l-.43-5,2.53,2.53a1,1,0,1,0,1.52-.24,1,1,0,0,0-1.1-.18l-2.53-2.53,4.94.44a.34.34,0,0,0,.24-.09.25.25,0,0,0,.08-.18.3.3,0,0,0-.27-.33l-5.23-.45L256,87.18a1,1,0,0,0,1.1-.18,1,1,0,0,0-1.35-1.35Z" style="fill:#e0e0e0"></path><path d="M286.58,123.17a1.4,1.4,0,0,1,2.79,0,1.4,1.4,0,1,1-2.79,0Z" style="fill:#e0e0e0"></path><circle cx="361.79" cy="145.47" r="1.4" style="fill:#e0e0e0"></circle><circle cx="319.04" cy="95.55" r="1.4" style="fill:#e0e0e0"></circle><circle cx="274.36" cy="43.01" r="1.4" style="fill:#e0e0e0"></circle><path d="M384,92.76a1.4,1.4,0,1,1,1.39,1.39A1.4,1.4,0,0,1,384,92.76Z" style="fill:#e0e0e0"></path><circle cx="470.81" cy="228.38" r="1.4" style="fill:#e0e0e0"></circle><circle cx="415.13" cy="130.06" r="1.4" style="fill:#e0e0e0"></circle><path d="M50.21,174.44a.94.94,0,0,1,1.1-.17l1.82-1.83-5-.44a.29.29,0,0,1-.27-.32.31.31,0,0,1,.32-.27l5,.44-2.64-2.65a1,1,0,1,1,.24-1.52,1,1,0,0,1,.18,1.1l2.64,2.65-.43-5a.3.3,0,0,1,.59,0l.44,5L56,169.62a1,1,0,0,1,.18-1.1,1,1,0,1,1,.24,1.52L54.45,172l5.23.46a.29.29,0,0,1,.27.32.27.27,0,0,1-.08.19.3.3,0,0,1-.24.08l-5-.43,2.53,2.53a1,1,0,1,1-.24,1.52,1,1,0,0,1-.18-1.1L54.26,173,54.7,178a.28.28,0,0,1-.09.23.31.31,0,0,1-.18.09.29.29,0,0,1-.32-.27l-.46-5.23-1.92,1.92a1,1,0,1,1-1.52-.25Z" style="fill:#e0e0e0"></path><path d="M143.28,109.75a.94.94,0,0,1,1.1-.17l1.83-1.83-5-.44a.28.28,0,0,1-.27-.32.29.29,0,0,1,.32-.27l4.94.44-2.64-2.65a.94.94,0,0,1-1.1-.17,1,1,0,0,1,1.35-1.35.94.94,0,0,1,.17,1.1l2.65,2.65-.44-4.95a.3.3,0,0,1,.27-.32.28.28,0,0,1,.32.27l.44,5,1.83-1.83a.94.94,0,0,1,.17-1.1,1,1,0,1,1,1.35,1.35.94.94,0,0,1-1.1.17l-1.92,1.92,5.23.46a.3.3,0,0,1,.27.32.34.34,0,0,1-.09.19.27.27,0,0,1-.23.08l-5-.43,2.53,2.53a.94.94,0,0,1,1.1.17,1,1,0,0,1-1.35,1.35.94.94,0,0,1-.17-1.1l-2.53-2.53.43,5a.27.27,0,0,1-.08.23.34.34,0,0,1-.19.09.3.3,0,0,1-.32-.27l-.46-5.23L144.8,110a.94.94,0,0,1-.17,1.1,1,1,0,1,1-1.35-1.35Z" style="fill:#e0e0e0"></path><circle cx="194.52" cy="79.13" r="1.4" style="fill:#e0e0e0"></circle><path d="M32.72,219.85a1.4,1.4,0,1,0-2.79,0,1.4,1.4,0,0,0,2.79,0Z" style="fill:#e0e0e0"></path><circle cx="132.94" cy="143.85" r="1.4" style="fill:#e0e0e0"></circle><circle cx="158.97" cy="64.11" r="1.4" style="fill:#e0e0e0"></circle><path d="M111.91,97.11a1.4,1.4,0,1,0-1.39,1.39A1.4,1.4,0,0,0,111.91,97.11Z" style="fill:#e0e0e0"></path><circle cx="87.51" cy="133.07" r="1.4" style="fill:#e0e0e0"></circle><path d="M204,124.21a1.4,1.4,0,0,0-1.38-1.41,1.4,1.4,0,0,0,0,2.79A1.4,1.4,0,0,0,204,124.21Z" style="fill:#e0e0e0"></path></g><g id="freepik--Floor--inject-13"><g id="freepik--floor--inject-13"><g id="freepik--floor--inject-13"><ellipse cx="250" cy="312.64" rx="238.33" ry="165.23" style="fill:#BA68C8"></ellipse><ellipse cx="250" cy="312.64" rx="238.33" ry="165.23" style="fill:#fff;opacity:0.9500000000000001"></ellipse></g><path d="M119.89,423.21c22.57-13.06,41.36.68,45.26,10,10.77-8.39,28.73-4.34,37.39,13.26,4.17-8.75,13.21-13.26,20.57-12.88-6-4.63-18.06.68-20.85,5.05,0,0-6.34-13.13-19-14.45a32.36,32.36,0,0,0-16.44,2.4S147.12,398.59,119.89,423.21Z" style="fill:#BA68C8;opacity:0.30000000000000004"></path><path d="M185,404c-8-4.39-27.07-2.23-37.32,9.64a27.54,27.54,0,0,1,7.3,2.74c2.49-6.2,21.66-14.64,30.36-8.65,6.21-6,13.07-5,14.77-4C195,400.92,191.09,400.7,185,404Z" style="fill:#BA68C8;opacity:0.2"></path><path d="M154.51,400.68a15,15,0,0,1-.62,5,23,23,0,0,1-1.25,3.43,30.32,30.32,0,0,0-4.94,4.55,25.12,25.12,0,0,0-11.87.26,32.64,32.64,0,0,0-2.06-3c-.34-.48-.69-1-1.05-1.43,0-.06-.41-.5-.45-.55s-.32-.35-.48-.54c-.46-.47-.94-.93-1.36-1.43a.8.8,0,0,0-.14-.14s0,0-.13-.13c-.37-.33-.73-.66-1.12-1-.65-.51-1.34-1-2-1.43a8.6,8.6,0,0,1-2.73-2.15,1.06,1.06,0,0,1,.06-1.32c.75-.69,1.75-.14,2.62.11s1.71.54,2.53.87a24.17,24.17,0,0,1,5.43,2.77A21.37,21.37,0,0,1,140,410a25.84,25.84,0,0,0,.11-5.56,52.45,52.45,0,0,0-1.17-5.65c-.27-1.12-.54-2.22-.83-3.34-.23-.91-.59-1.74-.88-2.64-.12-.37-.2-.86.17-1,.73-.35,2.14,1.65,2.5,2.09a27.24,27.24,0,0,1,2.12,2.9,19.29,19.29,0,0,1,1.92,3.38,26.06,26.06,0,0,1,1,3,20.43,20.43,0,0,1,.6,5.28c0,.41,0,.83,0,1.23a.28.28,0,0,0,.3-.09,25.68,25.68,0,0,0,5.62-13.27,3.54,3.54,0,0,1,.4-1.52.66.66,0,0,1,.22-.22.51.51,0,0,1,.55.09,6.09,6.09,0,0,1,1.25,2.77A13.68,13.68,0,0,1,154.51,400.68Z" style="fill:#BA68C8"></path><path d="M154.51,400.68a15,15,0,0,1-.62,5,23,23,0,0,1-1.25,3.43,30.32,30.32,0,0,0-4.94,4.55,25.12,25.12,0,0,0-11.87.26,32.64,32.64,0,0,0-2.06-3c-.34-.48-.69-1-1.05-1.43,0-.06-.41-.5-.45-.55s-.32-.35-.48-.54c-.46-.47-.94-.93-1.36-1.43a.8.8,0,0,0-.14-.14s0,0-.13-.13c-.37-.33-.73-.66-1.12-1-.65-.51-1.34-1-2-1.43a8.6,8.6,0,0,1-2.73-2.15,1.06,1.06,0,0,1,.06-1.32c.75-.69,1.75-.14,2.62.11s1.71.54,2.53.87a24.17,24.17,0,0,1,5.43,2.77A21.37,21.37,0,0,1,140,410a25.84,25.84,0,0,0,.11-5.56,52.45,52.45,0,0,0-1.17-5.65c-.27-1.12-.54-2.22-.83-3.34-.23-.91-.59-1.74-.88-2.64-.12-.37-.2-.86.17-1,.73-.35,2.14,1.65,2.5,2.09a27.24,27.24,0,0,1,2.12,2.9,19.29,19.29,0,0,1,1.92,3.38,26.06,26.06,0,0,1,1,3,20.43,20.43,0,0,1,.6,5.28c0,.41,0,.83,0,1.23a.28.28,0,0,0,.3-.09,25.68,25.68,0,0,0,5.62-13.27,3.54,3.54,0,0,1,.4-1.52.66.66,0,0,1,.22-.22.51.51,0,0,1,.55.09,6.09,6.09,0,0,1,1.25,2.77A13.68,13.68,0,0,1,154.51,400.68Z" style="opacity:0.4"></path><path d="M358.23,181.36c-13.21-7.64-24.21.4-26.49,5.87-6.31-4.91-16.82-5.71-21.89,4.59a13.18,13.18,0,0,0-12-7.54c3.49-2.71,10.57.4,12.2,3a13.36,13.36,0,0,1,10.35-6.77c5.61-.59,10.43,2.89,10.43,2.89S342.29,167,358.23,181.36Z" style="fill:#BA68C8;opacity:0.30000000000000004"></path><path d="M320.11,170.14c4.65-2.57,15.84-1.31,21.84,5.64a16.11,16.11,0,0,0-4.27,1.61c-1.46-3.63-12.68-8.57-17.77-5.06-3.64-3.55-7.65-2.91-8.65-2.36C314.27,168.31,316.55,168.18,320.11,170.14Z" style="fill:#BA68C8;opacity:0.2"></path><path d="M55.1,405.19a4.43,4.43,0,0,1-1.52,4.17c-2.33,1.95-7.35,4.74-16.95,4.74S22,411.31,19.69,409.36a4.4,4.4,0,0,1-1.51-4.17c1.38-7.23,9.12-12.77,18.46-12.77S53.71,398,55.1,405.19Z" style="fill:#BA68C8"></path><path d="M55.1,405.19a4.43,4.43,0,0,1-1.52,4.17c-2.33,1.95-7.35,4.74-16.95,4.74S22,411.31,19.69,409.36a4.4,4.4,0,0,1-1.51-4.17c1.38-7.23,9.12-12.77,18.46-12.77S53.71,398,55.1,405.19Z" style="fill:#fff;opacity:0.8"></path><path d="M37.8,409.17a18.66,18.66,0,0,1-16.36,1.43c2.79,1.72,7.53,3.5,15.19,3.5,9.6,0,14.62-2.79,16.95-4.74a4.43,4.43,0,0,0,1.52-4.17c-.88-4.56-4.28-8.45-9-10.7,4,2.37,6.94,9.18,4.48,9.44C47,404.3,42.68,406,37.8,409.17Z" style="fill:#BA68C8;opacity:0.2"></path><path d="M83.17,426.08A6.48,6.48,0,0,1,81,432.19c-3.42,2.85-10.77,6.95-24.83,6.95s-21.41-4.1-24.83-6.95a6.48,6.48,0,0,1-2.22-6.11c2-10.59,13.37-18.71,27.05-18.71S81.14,415.48,83.17,426.08Z" style="fill:#BA68C8"></path><path d="M83.17,426.08A6.48,6.48,0,0,1,81,432.19c-3.42,2.85-10.77,6.95-24.83,6.95s-21.41-4.1-24.83-6.95a6.48,6.48,0,0,1-2.22-6.11c2-10.59,13.37-18.71,27.05-18.71S81.14,415.48,83.17,426.08Z" style="fill:#fff;opacity:0.8"></path><path d="M64.7,432.09c-4.58,4.07-21.7,5.6-30.84,1.93,4.08,2.5,11,5.12,22.26,5.12,14.06,0,21.41-4.1,24.83-6.95a6.48,6.48,0,0,0,2.22-6.11C81.89,419.4,76.9,413.71,70,410.41c5.9,3.47,9.13,11.21,6.57,13.82S69.28,428,64.7,432.09Z" style="fill:#BA68C8;opacity:0.2"></path><path d="M103.51,438.84a4.14,4.14,0,0,1-1.43,3.92c-2.2,1.84-6.93,4.47-16,4.47s-13.77-2.63-16-4.47a4.16,4.16,0,0,1-1.42-3.92c1.3-6.82,8.59-12,17.39-12S102.2,432,103.51,438.84Z" style="fill:#BA68C8"></path><path d="M103.51,438.84a4.14,4.14,0,0,1-1.43,3.92c-2.2,1.84-6.93,4.47-16,4.47s-13.77-2.63-16-4.47a4.16,4.16,0,0,1-1.42-3.92c1.3-6.82,8.59-12,17.39-12S102.2,432,103.51,438.84Z" style="fill:#fff;opacity:0.8"></path><path d="M91.63,442.7c-2.94,2.61-13.95,3.6-19.82,1.24,2.62,1.61,7.09,3.29,14.31,3.29,9,0,13.76-2.63,16-4.47a4.14,4.14,0,0,0,1.43-3.92c-.83-4.3-4-8-8.49-10.08,3.79,2.23,5.86,7.21,4.22,8.89S94.58,440.08,91.63,442.7Z" style="fill:#BA68C8;opacity:0.2"></path><path d="M446.4,405.19a4.45,4.45,0,0,0,1.51,4.17c2.34,1.95,7.36,4.74,16.95,4.74s14.62-2.79,16.95-4.74a4.4,4.4,0,0,0,1.51-4.17c-1.38-7.23-9.12-12.77-18.46-12.77S447.79,398,446.4,405.19Z" style="fill:#BA68C8"></path><path d="M446.4,405.19a4.45,4.45,0,0,0,1.51,4.17c2.34,1.95,7.36,4.74,16.95,4.74s14.62-2.79,16.95-4.74a4.4,4.4,0,0,0,1.51-4.17c-1.38-7.23-9.12-12.77-18.46-12.77S447.79,398,446.4,405.19Z" style="fill:#fff;opacity:0.8"></path><path d="M463.7,409.17a18.66,18.66,0,0,0,16.36,1.43c-2.79,1.72-7.53,3.5-15.2,3.5-9.59,0-14.61-2.79-16.95-4.74a4.45,4.45,0,0,1-1.51-4.17c.88-4.56,4.28-8.45,9-10.7-4,2.37-6.94,9.18-4.49,9.44C454.48,404.3,458.82,406,463.7,409.17Z" style="fill:#BA68C8;opacity:0.2"></path><path d="M418.33,426.08a6.5,6.5,0,0,0,2.21,6.11c3.43,2.85,10.78,6.95,24.84,6.95s21.41-4.1,24.83-6.95a6.47,6.47,0,0,0,2.21-6.11c-2-10.59-13.36-18.71-27-18.71S420.36,415.48,418.33,426.08Z" style="fill:#BA68C8"></path><path d="M418.33,426.08a6.5,6.5,0,0,0,2.21,6.11c3.43,2.85,10.78,6.95,24.84,6.95s21.41-4.1,24.83-6.95a6.47,6.47,0,0,0,2.21-6.11c-2-10.59-13.36-18.71-27-18.71S420.36,415.48,418.33,426.08Z" style="fill:#fff;opacity:0.8"></path><path d="M436.8,432.09c4.58,4.07,21.7,5.6,30.84,1.93-4.08,2.5-11,5.12-22.26,5.12-14.06,0-21.41-4.1-24.84-6.95a6.5,6.5,0,0,1-2.21-6.11c1.28-6.68,6.27-12.37,13.21-15.67-5.9,3.47-9.13,11.21-6.57,13.82S432.22,428,436.8,432.09Z" style="fill:#BA68C8;opacity:0.2"></path><path d="M398,438.84a4.14,4.14,0,0,0,1.43,3.92c2.19,1.84,6.92,4.47,16,4.47s13.77-2.63,16-4.47a4.16,4.16,0,0,0,1.42-3.92c-1.3-6.82-8.59-12-17.39-12S399.29,432,398,438.84Z" style="fill:#BA68C8"></path><path d="M398,438.84a4.14,4.14,0,0,0,1.43,3.92c2.19,1.84,6.92,4.47,16,4.47s13.77-2.63,16-4.47a4.16,4.16,0,0,0,1.42-3.92c-1.3-6.82-8.59-12-17.39-12S399.29,432,398,438.84Z" style="fill:#fff;opacity:0.8"></path><path d="M409.87,442.7c2.94,2.61,13.95,3.6,19.82,1.24-2.62,1.61-7.09,3.29-14.31,3.29-9,0-13.76-2.63-16-4.47a4.14,4.14,0,0,1-1.43-3.92c.82-4.3,4-8,8.49-10.08-3.79,2.23-5.86,7.21-4.22,8.89S406.92,440.08,409.87,442.7Z" style="fill:#BA68C8;opacity:0.2"></path></g></g><g id="freepik--Plants--inject-13"><g id="freepik--plants--inject-13"><g id="freepik--plants--inject-13"><path d="M298,421.85a8.55,8.55,0,0,0,1.7-7c-.55-3.61-.7-6.88-1.25-7.5s-2.6,3.78-3,7.67S296.51,420.46,298,421.85Z" style="fill:#BA68C8"></path><path d="M296.59,425.74c-.38.59-3.11-1.26-4.57-3.89s-1.65-5.21-1.46-5.55,3.84,2.64,4.86,4.75S296.83,425.36,296.59,425.74Z" style="fill:#BA68C8"></path><path d="M297.59,432.71c-.28.73-3.71-.69-5.92-3.28s-3-5.4-2.89-5.82,4.83,2.05,6.44,4.16S297.77,432.23,297.59,432.71Z" style="fill:#BA68C8"></path><path d="M299.72,429.67c-.78-.13-.06-3.77,2-6.45s4.7-4,5.14-4-.29,4.14-2.8,7.14C302.4,428.41,300.22,429.75,299.72,429.67Z" style="fill:#BA68C8"></path><path d="M301,438.37h-.58c-.62-.72-1.05-3.78-.28-6.58.9-3.28,2.78-5.53,3.21-5.66s1.32,3.94.16,7.67A11.45,11.45,0,0,1,301,438.37Z" style="fill:#BA68C8"></path><path d="M296,434.69a14.4,14.4,0,0,1,2.87,3.68h-3.88a11.92,11.92,0,0,1-2.23-1.47c-2.6-2.2-3.85-4.85-3.78-5.28S294,432.87,296,434.69Z" style="fill:#BA68C8"></path><path d="M299.79,429.66a10.46,10.46,0,0,0-.53,1.61c-.12.5-.23,1-.3,1.52.23,1.87.54,3.72.89,5.58h-.62c-.22-.85-.42-1.71-.58-2.59a2.42,2.42,0,0,0-.12-.35,10.51,10.51,0,0,0-.68-1.49c-.26-.46-.57-.89-.88-1.33a7.9,7.9,0,0,1-.93-1.3c0-.06,0-.27.1-.23a1.61,1.61,0,0,1,.59.44c.22.21.43.42.63.64a8.26,8.26,0,0,1,.95,1.33c-.11-.86-.19-1.71-.26-2.57-.28-.91-.54-1.82-.9-2.7-.25-.64-.52-1.27-.82-1.89a14.45,14.45,0,0,1-1-2.15c0-.07,0-.23.11-.17a5,5,0,0,1,1.32,1.75,15,15,0,0,1,1,2l.15.41a47.3,47.3,0,0,1,.25-9.14c0-.14.16-.12.17,0,.29,3.3.1,6.64.3,9.94,0,.64.09,1.26.15,1.89a9.71,9.71,0,0,1,.64-1.65,5,5,0,0,1,1.09-1.55c.15-.12.2.17.16.26C300.38,428.54,300,429.07,299.79,429.66Z" style="fill:#BA68C8"></path></g><g id="freepik--plants--inject-13"><path d="M311,434.37a8.55,8.55,0,0,1-1.7-7c.55-3.62.7-6.88,1.25-7.5s2.6,3.78,3,7.66S312.47,433,311,434.37Z" style="fill:#BA68C8"></path><path d="M312.39,438.26c.38.58,3.11-1.26,4.57-3.89s1.65-5.21,1.46-5.55-3.84,2.64-4.86,4.75S312.15,437.88,312.39,438.26Z" style="fill:#BA68C8"></path><path d="M311.39,445.23c.28.73,3.72-.69,5.93-3.28s3-5.4,2.88-5.83-4.83,2.06-6.44,4.16S311.21,444.75,311.39,445.23Z" style="fill:#BA68C8"></path><path d="M309.26,442.19c.78-.13.06-3.78-2-6.46s-4.7-4-5.14-4,.3,4.14,2.8,7.13C306.59,440.92,308.76,442.27,309.26,442.19Z" style="fill:#BA68C8"></path><path d="M308,450.89h.57c.62-.72,1.05-3.78.28-6.58-.9-3.29-2.78-5.53-3.2-5.66s-1.33,3.94-.17,7.67A11.52,11.52,0,0,0,308,450.89Z" style="fill:#BA68C8"></path><path d="M313,447.2a14.65,14.65,0,0,0-2.87,3.69H314a11.92,11.92,0,0,0,2.23-1.47c2.6-2.2,3.85-4.85,3.79-5.29S315,445.38,313,447.2Z" style="fill:#BA68C8"></path><path d="M309.19,442.18a9.79,9.79,0,0,1,.53,1.61c.12.5.23,1,.3,1.51-.23,1.87-.54,3.73-.89,5.59h.63c.22-.86.41-1.72.57-2.59a3.59,3.59,0,0,1,.12-.35,10,10,0,0,1,.68-1.49c.27-.46.57-.9.88-1.33a8.34,8.34,0,0,0,.93-1.3c0-.07,0-.27-.1-.23a1.5,1.5,0,0,0-.59.44c-.22.21-.43.42-.63.64a7.76,7.76,0,0,0-.95,1.32c.11-.85.19-1.71.26-2.56.28-.91.55-1.82.9-2.71.25-.63.52-1.27.82-1.89a14.4,14.4,0,0,0,1-2.14c0-.07,0-.23-.12-.17a4.91,4.91,0,0,0-1.31,1.74,14.45,14.45,0,0,0-1,2l-.15.42a47.27,47.27,0,0,0-.25-9.14c0-.15-.16-.12-.17,0-.29,3.3-.09,6.63-.3,9.94,0,.63-.09,1.26-.15,1.88a9.13,9.13,0,0,0-.64-1.64,4.73,4.73,0,0,0-1.09-1.55c-.14-.12-.2.16-.16.25C308.6,441.05,308.94,441.59,309.19,442.18Z" style="fill:#BA68C8"></path></g><g id="freepik--plants--inject-13" style="opacity:0.30000000000000004"><path d="M311,434.37a8.55,8.55,0,0,1-1.7-7c.55-3.62.7-6.88,1.25-7.5s2.6,3.78,3,7.66S312.47,433,311,434.37Z"></path><path d="M312.39,438.26c.38.58,3.11-1.26,4.57-3.89s1.65-5.21,1.46-5.55-3.84,2.64-4.86,4.75S312.15,437.88,312.39,438.26Z"></path><path d="M311.39,445.23c.28.73,3.72-.69,5.93-3.28s3-5.4,2.88-5.83-4.83,2.06-6.44,4.16S311.21,444.75,311.39,445.23Z"></path><path d="M309.26,442.19c.78-.13.06-3.78-2-6.46s-4.7-4-5.14-4,.3,4.14,2.8,7.13C306.59,440.92,308.76,442.27,309.26,442.19Z"></path><path d="M308,450.89h.57c.62-.72,1.05-3.78.28-6.58-.9-3.29-2.78-5.53-3.2-5.66s-1.33,3.94-.17,7.67A11.52,11.52,0,0,0,308,450.89Z"></path><path d="M313,447.2a14.65,14.65,0,0,0-2.87,3.69H314a11.92,11.92,0,0,0,2.23-1.47c2.6-2.2,3.85-4.85,3.79-5.29S315,445.38,313,447.2Z"></path><path d="M309.19,442.18a9.79,9.79,0,0,1,.53,1.61c.12.5.23,1,.3,1.51-.23,1.87-.54,3.73-.89,5.59h.63c.22-.86.41-1.72.57-2.59a3.59,3.59,0,0,1,.12-.35,10,10,0,0,1,.68-1.49c.27-.46.57-.9.88-1.33a8.34,8.34,0,0,0,.93-1.3c0-.07,0-.27-.1-.23a1.5,1.5,0,0,0-.59.44c-.22.21-.43.42-.63.64a7.76,7.76,0,0,0-.95,1.32c.11-.85.19-1.71.26-2.56.28-.91.55-1.82.9-2.71.25-.63.52-1.27.82-1.89a14.4,14.4,0,0,0,1-2.14c0-.07,0-.23-.12-.17a4.91,4.91,0,0,0-1.31,1.74,14.45,14.45,0,0,0-1,2l-.15.42a47.27,47.27,0,0,0-.25-9.14c0-.15-.16-.12-.17,0-.29,3.3-.09,6.63-.3,9.94,0,.63-.09,1.26-.15,1.88a9.13,9.13,0,0,0-.64-1.64,4.73,4.73,0,0,0-1.09-1.55c-.14-.12-.2.16-.16.25C308.6,441.05,308.94,441.59,309.19,442.18Z"></path></g></g><g id="freepik--plants--inject-13"><path d="M86.2,178.91a45.27,45.27,0,0,1,3.92,6.23,63.08,63.08,0,0,1,4.77,13v0h.84v0a40,40,0,0,0-5-13.77,50.39,50.39,0,0,0-3.93-6,25.68,25.68,0,0,0-5.27-5.54c-.15-.11-.19.23-.13.32C83,175.14,84.71,176.91,86.2,178.91Z" style="fill:#BA68C8"></path><path d="M84.64,176.69a12,12,0,0,1-8-6.29c-2.56-4.47-5.27-8.2-5.19-9.37s6.18,1.9,10,5.85S85.08,173.84,84.64,176.69Z" style="fill:#BA68C8"></path><path d="M83.84,180.88c.15-.89-2-2.73-6.15-3.68s-9.73-.59-10,0,4.91,3.87,9.37,4.39S83.69,181.71,83.84,180.88Z" style="fill:#BA68C8"></path><path d="M93.61,160.37c-.69-.29-4.08,5.93-4.32,11.09-.22,4.48.22,6.94,1,7.58,0,.06,0,.12,0,.18a12.44,12.44,0,0,0-.24,2.43,8.27,8.27,0,0,0,1.11,4.71c0,.08.12-.06.11-.11-.11-1.45-.4-2.88-.41-4.33a17,17,0,0,1,.2-2.77c1.07-.42,2.7-2.94,3.38-7.27C95.15,167,94.3,160.67,93.61,160.37Z" style="fill:#BA68C8"></path><path d="M91.06,190.78c.24-.87-1.7-2.91-5.76-4.27s-9.62-1.54-10-1,4.5,4.34,8.89,5.29S90.83,191.59,91.06,190.78Z" style="fill:#BA68C8"></path><path d="M84.47,198.2h7.41a18.54,18.54,0,0,0-1.51-1.13c-3.55-2.37-8.88-4-9.36-3.56C80.68,193.8,82.23,196.09,84.47,198.2Z" style="fill:#BA68C8"></path><path d="M89.93,183.11a2.9,2.9,0,0,0-1.36-1.18,12.13,12.13,0,0,0-2-.8,20.67,20.67,0,0,0-4.56-.74c-.16,0-.21.35-.06.39,1.41.45,2.85.75,4.28,1.16a11.13,11.13,0,0,1,1.93.7c.29.15.58.3.86.47s.54.4.83.35C90,183.43,90,183.19,89.93,183.11Z" style="fill:#BA68C8"></path><path d="M91.68,190.47a10.48,10.48,0,0,0-1.65-.6,6.14,6.14,0,0,0-1.71-.18c-.15,0-.19.27,0,.31,1,.34,2.07.73,3.07,1.17a10,10,0,0,1,1.37.73,2.35,2.35,0,0,1,.88.89c.17.31.53.26.5-.13C94,191.53,92.55,190.89,91.68,190.47Z" style="fill:#BA68C8"></path><path d="M98.42,198.2h.81c.87-1,1.48-5.33.4-9.28-1.28-4.63-3.92-7.8-4.52-8s-1.87,5.55-.24,10.81A16.16,16.16,0,0,0,98.42,198.2Z" style="fill:#BA68C8"></path><g style="opacity:0.15"><path d="M86.2,178.91a45.27,45.27,0,0,1,3.92,6.23,63.08,63.08,0,0,1,4.77,13v0h.84v0a40,40,0,0,0-5-13.77,50.39,50.39,0,0,0-3.93-6,25.68,25.68,0,0,0-5.27-5.54c-.15-.11-.19.23-.13.32C83,175.14,84.71,176.91,86.2,178.91Z"></path><path d="M84.64,176.69a12,12,0,0,1-8-6.29c-2.56-4.47-5.27-8.2-5.19-9.37s6.18,1.9,10,5.85S85.08,173.84,84.64,176.69Z"></path><path d="M83.84,180.88c.15-.89-2-2.73-6.15-3.68s-9.73-.59-10,0,4.91,3.87,9.37,4.39S83.69,181.71,83.84,180.88Z"></path><path d="M93.61,160.37c-.69-.29-4.08,5.93-4.32,11.09-.22,4.48.22,6.94,1,7.58,0,.06,0,.12,0,.18a12.44,12.44,0,0,0-.24,2.43,8.27,8.27,0,0,0,1.11,4.71c0,.08.12-.06.11-.11-.11-1.45-.4-2.88-.41-4.33a17,17,0,0,1,.2-2.77c1.07-.42,2.7-2.94,3.38-7.27C95.15,167,94.3,160.67,93.61,160.37Z"></path><path d="M91.06,190.78c.24-.87-1.7-2.91-5.76-4.27s-9.62-1.54-10-1,4.5,4.34,8.89,5.29S90.83,191.59,91.06,190.78Z"></path><path d="M84.47,198.2h7.41a18.54,18.54,0,0,0-1.51-1.13c-3.55-2.37-8.88-4-9.36-3.56C80.68,193.8,82.23,196.09,84.47,198.2Z"></path><path d="M89.93,183.11a2.9,2.9,0,0,0-1.36-1.18,12.13,12.13,0,0,0-2-.8,20.67,20.67,0,0,0-4.56-.74c-.16,0-.21.35-.06.39,1.41.45,2.85.75,4.28,1.16a11.13,11.13,0,0,1,1.93.7c.29.15.58.3.86.47s.54.4.83.35C90,183.43,90,183.19,89.93,183.11Z"></path><path d="M91.68,190.47a10.48,10.48,0,0,0-1.65-.6,6.14,6.14,0,0,0-1.71-.18c-.15,0-.19.27,0,.31,1,.34,2.07.73,3.07,1.17a10,10,0,0,1,1.37.73,2.35,2.35,0,0,1,.88.89c.17.31.53.26.5-.13C94,191.53,92.55,190.89,91.68,190.47Z"></path><path d="M98.42,198.2h.81c.87-1,1.48-5.33.4-9.28-1.28-4.63-3.92-7.8-4.52-8s-1.87,5.55-.24,10.81A16.16,16.16,0,0,0,98.42,198.2Z"></path></g><path d="M102.67,174.9a12,12,0,0,1-2.39-9.93c.77-5.09,1-9.7,1.76-10.57s3.66,5.33,4.19,10.81S104.78,172.94,102.67,174.9Z" style="fill:#BA68C8"></path><path d="M104.68,180.39c.53.82,4.38-1.78,6.44-5.49s2.33-7.34,2-7.82-5.41,3.72-6.85,6.69S104.33,179.86,104.68,180.39Z" style="fill:#BA68C8"></path><path d="M103.27,190.21c.39,1,5.23-1,8.35-4.62s4.26-7.62,4.07-8.21-6.82,2.9-9.09,5.86S103,189.55,103.27,190.21Z" style="fill:#BA68C8"></path><path d="M100.26,185.93c1.1-.18.09-5.32-2.88-9.1s-6.63-5.68-7.25-5.61.42,5.84,4,10.06C96.49,184.15,99.56,186.05,100.26,185.93Z" style="fill:#BA68C8"></path><path d="M105.57,193a20.9,20.9,0,0,0-4,5.2H107a17.09,17.09,0,0,0,3.15-2.07c3.66-3.1,5.42-6.84,5.33-7.46S108.29,190.44,105.57,193Z" style="fill:#BA68C8"></path><path d="M100.16,185.91a15.21,15.21,0,0,1,.75,2.28,21.67,21.67,0,0,1,.42,2.13c-.32,2.64-.76,5.26-1.26,7.88H101c.31-1.21.59-2.42.81-3.65,0-.17.1-.34.16-.5a16,16,0,0,1,1-2.1c.37-.64.8-1.26,1.23-1.87a11.62,11.62,0,0,0,1.32-1.83c0-.1,0-.38-.14-.33a2.33,2.33,0,0,0-.84.62c-.3.29-.6.6-.88.91a10.72,10.72,0,0,0-1.34,1.86c.15-1.21.27-2.41.37-3.62.39-1.28.76-2.57,1.26-3.81.36-.9.74-1.79,1.15-2.66a19.46,19.46,0,0,0,1.43-3c0-.1,0-.33-.17-.24a7,7,0,0,0-1.85,2.46,21.33,21.33,0,0,0-1.37,2.85l-.21.58A66.77,66.77,0,0,0,102.5,171c0-.21-.22-.17-.24,0-.41,4.66-.13,9.36-.42,14,0,.89-.13,1.78-.22,2.66a12.11,12.11,0,0,0-.9-2.32,6.74,6.74,0,0,0-1.54-2.19c-.2-.16-.28.23-.22.36C99.32,184.33,99.81,185.09,100.16,185.91Z" style="fill:#BA68C8"></path><path d="M53.05,193.16c1,1.89,1.06,3.87-.73,6.35-2.93-.08-4.61-1.22-5.58-3.11a3.56,3.56,0,1,1,6.31-3.24Z" style="fill:#BA68C8"></path><path d="M46.78,203.36c2,.67,3.47,2,3.94,5-2.14,2-4.14,2.37-6.15,1.71a3.56,3.56,0,1,1,2.21-6.74Z" style="fill:#BA68C8"></path><path d="M55.23,218.3c1.24,1.72,1.63,3.67.23,6.39-2.91.36-4.74-.52-6-2.24a3.56,3.56,0,1,1,5.75-4.15Z" style="fill:#BA68C8"></path><path d="M66.7,203c-.8,2-2.24,3.32-5.29,3.58-1.85-2.28-2.07-4.3-1.27-6.26A3.55,3.55,0,1,1,66.7,203Z" style="fill:#BA68C8"></path><path d="M72.26,216.84c-1.08,1.83-2.7,3-5.75,2.79-1.51-2.52-1.44-4.55-.36-6.38a3.55,3.55,0,1,1,6.11,3.59Z" style="fill:#BA68C8"></path><path d="M55,205.83a60.19,60.19,0,0,1,3.3,8.07,50.63,50.63,0,0,1,2,9,45.33,45.33,0,0,1,.38,5.08c0,.85-.09,1.74-.13,2.63l-.54-.7-2.82-3.58a37.81,37.81,0,0,1-2.37-3.13c-.16-.25-.29.18-.23.32A15.39,15.39,0,0,0,57,227.11q1.4,1.81,2.8,3.62l.82,1c.25.34.39.49.6.75a29.61,29.61,0,0,0,2.91,3.12h1a30.92,30.92,0,0,1-3.79-4c0-.28,0-.55,0-.82,0-.81.07-1.62.06-2.44a44.93,44.93,0,0,0-.25-4.64,50,50,0,0,0-1.93-9.21A61.21,61.21,0,0,0,56,206.24c-.69-1.45-1.45-2.87-2.24-4.27a22.87,22.87,0,0,0-2.86-4.22c-.06-.06-.11.11-.09.15C52.05,200.62,53.7,203.15,55,205.83Z" style="fill:#BA68C8"></path><path d="M57.2,194.76c0-.14-.16-.09-.19,0a14.26,14.26,0,0,0-.29,2.44c-.07,1-.12,2-.22,3-.21,2.15-.59,4.26-.9,6.39-.06.39.52.87.67.35a33,33,0,0,0,1-5.76A20.64,20.64,0,0,0,57.2,194.76Z" style="fill:#BA68C8"></path><path d="M61.72,204.6c0-.15-.18-.17-.21,0-.09.46-.25.9-.33,1.38s-.16,1-.25,1.52c-.15,1-.3,1.92-.51,2.88-.4,1.86-.92,3.68-1.36,5.53-.06.24.27.63.43.29a23.56,23.56,0,0,0,1.74-5.53c.18-.95.36-1.9.47-2.86A19,19,0,0,0,61.72,204.6Z" style="fill:#BA68C8"></path><path d="M57.69,212.64a19.8,19.8,0,0,0-2.45-2.21,17.63,17.63,0,0,0-2.9-1.78,8.75,8.75,0,0,0-3.27-1.07c-.19,0-.16.36,0,.42,1,.49,2,.86,3,1.36a18.79,18.79,0,0,1,2.62,1.58,18,18,0,0,1,2.36,2c.34.33.65.67,1,1a5.38,5.38,0,0,1,.48.59c.14.21.2.45.34.66s.18.17.26.06C59.66,214.52,58.16,213.14,57.69,212.64Z" style="fill:#BA68C8"></path><path d="M67.1,218.53a.1.1,0,0,0-.08-.05c-.36,0-.47.52-.61.79s-.45.77-.69,1.15a18.78,18.78,0,0,1-1.54,2.12,19.44,19.44,0,0,1-1.9,2c-.52.46-1.54,1.12-1.45,1.92,0,.14.16.43.35.35.37-.15.62-.59.91-.87s.67-.57,1-.87a18.12,18.12,0,0,0,1.86-2,16.63,16.63,0,0,0,1.53-2.2C66.83,220.25,67.47,219.26,67.1,218.53Z" style="fill:#BA68C8"></path><path d="M52.48,230.35c.84.82,1.69,1.64,2.55,2.44a41.74,41.74,0,0,0,3.38,2.85h1.37a45.68,45.68,0,0,1-4.14-3.36c-.8-.73-1.58-1.48-2.36-2.23a13.21,13.21,0,0,1-2.2-2.41c-.1-.16-.21.05-.2.15A4.33,4.33,0,0,0,52.48,230.35Z" style="fill:#BA68C8"></path><path d="M68,231.62c0,.77,0,1.55-.08,2.32-.05.57-.17,1.14-.23,1.7h1c.11-.49.19-1,.26-1.46a17.14,17.14,0,0,0,.18-2.48c0-1.52-.06-3.39-1-4.69a.13.13,0,0,0-.23,0,4.67,4.67,0,0,0,0,2.17C67.88,230,68,230.81,68,231.62Z" style="fill:#BA68C8"></path><g style="opacity:0.55"><path d="M53.05,193.16c1,1.89,1.06,3.87-.73,6.35-2.93-.08-4.61-1.22-5.58-3.11a3.56,3.56,0,1,1,6.31-3.24Z" style="fill:#fff"></path><path d="M46.78,203.36c2,.67,3.47,2,3.94,5-2.14,2-4.14,2.37-6.15,1.71a3.56,3.56,0,1,1,2.21-6.74Z" style="fill:#fff"></path><path d="M55.23,218.3c1.24,1.72,1.63,3.67.23,6.39-2.91.36-4.74-.52-6-2.24a3.56,3.56,0,1,1,5.75-4.15Z" style="fill:#fff"></path><path d="M66.7,203c-.8,2-2.24,3.32-5.29,3.58-1.85-2.28-2.07-4.3-1.27-6.26A3.55,3.55,0,1,1,66.7,203Z" style="fill:#fff"></path><path d="M72.26,216.84c-1.08,1.83-2.7,3-5.75,2.79-1.51-2.52-1.44-4.55-.36-6.38a3.55,3.55,0,1,1,6.11,3.59Z" style="fill:#fff"></path><path d="M55,205.83a60.19,60.19,0,0,1,3.3,8.07,50.63,50.63,0,0,1,2,9,45.33,45.33,0,0,1,.38,5.08c0,.85-.09,1.74-.13,2.63l-.54-.7-2.82-3.58a37.81,37.81,0,0,1-2.37-3.13c-.16-.25-.29.18-.23.32A15.39,15.39,0,0,0,57,227.11q1.4,1.81,2.8,3.62l.82,1c.25.34.39.49.6.75a29.61,29.61,0,0,0,2.91,3.12h1a30.92,30.92,0,0,1-3.79-4c0-.28,0-.55,0-.82,0-.81.07-1.62.06-2.44a44.93,44.93,0,0,0-.25-4.64,50,50,0,0,0-1.93-9.21A61.21,61.21,0,0,0,56,206.24c-.69-1.45-1.45-2.87-2.24-4.27a22.87,22.87,0,0,0-2.86-4.22c-.06-.06-.11.11-.09.15C52.05,200.62,53.7,203.15,55,205.83Z" style="fill:#fff"></path><path d="M57.2,194.76c0-.14-.16-.09-.19,0a14.26,14.26,0,0,0-.29,2.44c-.07,1-.12,2-.22,3-.21,2.15-.59,4.26-.9,6.39-.06.39.52.87.67.35a33,33,0,0,0,1-5.76A20.64,20.64,0,0,0,57.2,194.76Z" style="fill:#fff"></path><path d="M61.72,204.6c0-.15-.18-.17-.21,0-.09.46-.25.9-.33,1.38s-.16,1-.25,1.52c-.15,1-.3,1.92-.51,2.88-.4,1.86-.92,3.68-1.36,5.53-.06.24.27.63.43.29a23.56,23.56,0,0,0,1.74-5.53c.18-.95.36-1.9.47-2.86A19,19,0,0,0,61.72,204.6Z" style="fill:#fff"></path><path d="M57.69,212.64a19.8,19.8,0,0,0-2.45-2.21,17.63,17.63,0,0,0-2.9-1.78,8.75,8.75,0,0,0-3.27-1.07c-.19,0-.16.36,0,.42,1,.49,2,.86,3,1.36a18.79,18.79,0,0,1,2.62,1.58,18,18,0,0,1,2.36,2c.34.33.65.67,1,1a5.38,5.38,0,0,1,.48.59c.14.21.2.45.34.66s.18.17.26.06C59.66,214.52,58.16,213.14,57.69,212.64Z" style="fill:#fff"></path><path d="M67.1,218.53a.1.1,0,0,0-.08-.05c-.36,0-.47.52-.61.79s-.45.77-.69,1.15a18.78,18.78,0,0,1-1.54,2.12,19.44,19.44,0,0,1-1.9,2c-.52.46-1.54,1.12-1.45,1.92,0,.14.16.43.35.35.37-.15.62-.59.91-.87s.67-.57,1-.87a18.12,18.12,0,0,0,1.86-2,16.63,16.63,0,0,0,1.53-2.2C66.83,220.25,67.47,219.26,67.1,218.53Z" style="fill:#fff"></path><path d="M52.48,230.35c.84.82,1.69,1.64,2.55,2.44a41.74,41.74,0,0,0,3.38,2.85h1.37a45.68,45.68,0,0,1-4.14-3.36c-.8-.73-1.58-1.48-2.36-2.23a13.21,13.21,0,0,1-2.2-2.41c-.1-.16-.21.05-.2.15A4.33,4.33,0,0,0,52.48,230.35Z" style="fill:#fff"></path><path d="M68,231.62c0,.77,0,1.55-.08,2.32-.05.57-.17,1.14-.23,1.7h1c.11-.49.19-1,.26-1.46a17.14,17.14,0,0,0,.18-2.48c0-1.52-.06-3.39-1-4.69a.13.13,0,0,0-.23,0,4.67,4.67,0,0,0,0,2.17C67.88,230,68,230.81,68,231.62Z" style="fill:#fff"></path></g><path d="M86.7,212.15c-.77,2-2.18,3.37-5.22,3.68-1.9-2.24-2.16-4.25-1.39-6.23a3.55,3.55,0,1,1,6.61,2.55Z" style="fill:#BA68C8"></path><path d="M90.94,222.31c-1.94.84-3.93.81-6.28-1.14.26-2.92,1.52-4.52,3.46-5.36a3.55,3.55,0,1,1,2.82,6.5Z" style="fill:#BA68C8"></path><path d="M87.07,220.17a3.14,3.14,0,0,0-1.74.33,9.94,9.94,0,0,0-1.44.68,12.55,12.55,0,0,0-2.72,2.09,13,13,0,0,0-2,2.54c0-.37.06-.75.1-1.12a24.8,24.8,0,0,1,.78-4c.36-1.25.87-2.44,1.33-3.65a7.32,7.32,0,0,0,.71-3.49c0-.09-.1-.08-.14,0a9.58,9.58,0,0,0-.82,1.95c-.23.61-.49,1.21-.74,1.81a30.55,30.55,0,0,0-1.16,3.46c0-.3-.08-.59-.13-.88a9.69,9.69,0,0,0-1.89-4.68c-.14-.16-.21.21-.18.29.41,1.36,1,2.66,1.28,4.06a25.58,25.58,0,0,1,.36,3.89,16.11,16.11,0,0,0-.16,3.92h1a9.86,9.86,0,0,1,.53-1,12.57,12.57,0,0,1,2.07-2.48A14.73,14.73,0,0,1,84.53,222c.42-.26.85-.48,1.28-.71s1-.38,1.31-.75C87.17,220.42,87.19,220.21,87.07,220.17Z" style="fill:#BA68C8"></path><g style="opacity:0.35000000000000003"><path d="M86.7,212.15c-.77,2-2.18,3.37-5.22,3.68-1.9-2.24-2.16-4.25-1.39-6.23a3.55,3.55,0,1,1,6.61,2.55Z" style="fill:#fff"></path><path d="M90.94,222.31c-1.94.84-3.93.81-6.28-1.14.26-2.92,1.52-4.52,3.46-5.36a3.55,3.55,0,1,1,2.82,6.5Z" style="fill:#fff"></path><path d="M87.07,220.17a3.14,3.14,0,0,0-1.74.33,9.94,9.94,0,0,0-1.44.68,12.55,12.55,0,0,0-2.72,2.09,13,13,0,0,0-2,2.54c0-.37.06-.75.1-1.12a24.8,24.8,0,0,1,.78-4c.36-1.25.87-2.44,1.33-3.65a7.32,7.32,0,0,0,.71-3.49c0-.09-.1-.08-.14,0a9.58,9.58,0,0,0-.82,1.95c-.23.61-.49,1.21-.74,1.81a30.55,30.55,0,0,0-1.16,3.46c0-.3-.08-.59-.13-.88a9.69,9.69,0,0,0-1.89-4.68c-.14-.16-.21.21-.18.29.41,1.36,1,2.66,1.28,4.06a25.58,25.58,0,0,1,.36,3.89,16.11,16.11,0,0,0-.16,3.92h1a9.86,9.86,0,0,1,.53-1,12.57,12.57,0,0,1,2.07-2.48A14.73,14.73,0,0,1,84.53,222c.42-.26.85-.48,1.28-.71s1-.38,1.31-.75C87.17,220.42,87.19,220.21,87.07,220.17Z" style="fill:#fff"></path></g><path d="M47.3,227.7c1.38,1.6,1.94,3.51.78,6.33-2.87.62-4.77-.1-6.15-1.71a3.55,3.55,0,1,1,5.37-4.62Z" style="fill:#BA68C8"></path><path d="M46.93,233.27a8.47,8.47,0,0,1,.58.76c.34.5.69,1,1,1.51a13.08,13.08,0,0,1,.81,1.47,6.56,6.56,0,0,1,.23.62h.82c-.07-.23-.14-.43-.19-.56a8.69,8.69,0,0,0-.91-1.8c-.38-.58-.79-1.13-1.21-1.66-.22-.27-.43-.54-.67-.79a1.93,1.93,0,0,0-.82-.63c-.25-.06-.22.37-.16.49A4.15,4.15,0,0,0,46.93,233.27Z" style="fill:#BA68C8"></path><g style="opacity:0.35000000000000003"><path d="M47.3,227.7c1.38,1.6,1.94,3.51.78,6.33-2.87.62-4.77-.1-6.15-1.71a3.55,3.55,0,1,1,5.37-4.62Z" style="fill:#fff"></path><path d="M46.93,233.27a8.47,8.47,0,0,1,.58.76c.34.5.69,1,1,1.51a13.08,13.08,0,0,1,.81,1.47,6.56,6.56,0,0,1,.23.62h.82c-.07-.23-.14-.43-.19-.56a8.69,8.69,0,0,0-.91-1.8c-.38-.58-.79-1.13-1.21-1.66-.22-.27-.43-.54-.67-.79a1.93,1.93,0,0,0-.82-.63c-.25-.06-.22.37-.16.49A4.15,4.15,0,0,0,46.93,233.27Z" style="fill:#fff"></path></g></g><g id="freepik--plants--inject-13"><path d="M449.35,215.83a46.24,46.24,0,0,0-3.92,6.23,62.48,62.48,0,0,0-4.76,13l0,0h-.84v0a40,40,0,0,1,5-13.77,49.26,49.26,0,0,1,3.94-6A25.86,25.86,0,0,1,454,209.8c.15-.1.19.24.13.32C452.58,212.07,450.84,213.83,449.35,215.83Z" style="fill:#BA68C8"></path><path d="M450.91,213.61a12.05,12.05,0,0,0,8-6.28c2.56-4.48,5.27-8.21,5.19-9.38s-6.18,1.9-10,5.85S450.47,210.76,450.91,213.61Z" style="fill:#BA68C8"></path><path d="M451.71,217.8c-.15-.89,2-2.73,6.15-3.68s9.73-.59,10,0-4.91,3.88-9.37,4.39S451.86,218.63,451.71,217.8Z" style="fill:#BA68C8"></path><path d="M441.94,197.3c.7-.29,4.08,5.92,4.32,11.08.22,4.48-.22,7-1,7.59l0,.17a13.35,13.35,0,0,1,.23,2.44,8.26,8.26,0,0,1-1.11,4.7c0,.08-.11-.06-.11-.1.11-1.45.4-2.88.42-4.34a19.74,19.74,0,0,0-.2-2.77c-1.08-.42-2.7-2.94-3.39-7.27C440.4,203.94,441.25,197.59,441.94,197.3Z" style="fill:#BA68C8"></path><path d="M444.49,227.7c-.24-.87,1.7-2.91,5.76-4.27s9.62-1.53,10-1-4.5,4.34-8.89,5.29S444.72,228.51,444.49,227.7Z" style="fill:#BA68C8"></path><path d="M451.08,235.12h-7.41a16.47,16.47,0,0,1,1.51-1.12c3.56-2.38,8.88-4,9.36-3.57C454.87,230.73,453.32,233,451.08,235.12Z" style="fill:#BA68C8"></path><path d="M445.62,220a2.9,2.9,0,0,1,1.36-1.18,11.29,11.29,0,0,1,2-.79,20.68,20.68,0,0,1,4.56-.75c.16,0,.21.35.06.4-1.41.45-2.85.75-4.28,1.15a11.17,11.17,0,0,0-1.93.71c-.29.14-.58.29-.86.46s-.54.41-.83.35C445.59,220.36,445.59,220.12,445.62,220Z" style="fill:#BA68C8"></path><path d="M443.87,227.39a9.53,9.53,0,0,1,1.65-.59,5.83,5.83,0,0,1,1.72-.19c.14,0,.18.27.05.32a30.94,30.94,0,0,0-3.08,1.17,11.15,11.15,0,0,0-1.37.72,2.37,2.37,0,0,0-.88.9c-.17.3-.53.25-.5-.13C441.54,228.46,443,227.81,443.87,227.39Z" style="fill:#BA68C8"></path><path d="M437.13,235.12h-.81c-.87-1-1.48-5.33-.4-9.28,1.28-4.63,3.93-7.8,4.53-8s1.86,5.54.23,10.81A16.18,16.18,0,0,1,437.13,235.12Z" style="fill:#BA68C8"></path><g style="opacity:0.15"><path d="M449.35,215.83a46.24,46.24,0,0,0-3.92,6.23,62.48,62.48,0,0,0-4.76,13l0,0h-.84v0a40,40,0,0,1,5-13.77,49.26,49.26,0,0,1,3.94-6A25.86,25.86,0,0,1,454,209.8c.15-.1.19.24.13.32C452.58,212.07,450.84,213.83,449.35,215.83Z"></path><path d="M450.91,213.61a12.05,12.05,0,0,0,8-6.28c2.56-4.48,5.27-8.21,5.19-9.38s-6.18,1.9-10,5.85S450.47,210.76,450.91,213.61Z"></path><path d="M451.71,217.8c-.15-.89,2-2.73,6.15-3.68s9.73-.59,10,0-4.91,3.88-9.37,4.39S451.86,218.63,451.71,217.8Z"></path><path d="M441.94,197.3c.7-.29,4.08,5.92,4.32,11.08.22,4.48-.22,7-1,7.59l0,.17a13.35,13.35,0,0,1,.23,2.44,8.26,8.26,0,0,1-1.11,4.7c0,.08-.11-.06-.11-.1.11-1.45.4-2.88.42-4.34a19.74,19.74,0,0,0-.2-2.77c-1.08-.42-2.7-2.94-3.39-7.27C440.4,203.94,441.25,197.59,441.94,197.3Z"></path><path d="M444.49,227.7c-.24-.87,1.7-2.91,5.76-4.27s9.62-1.53,10-1-4.5,4.34-8.89,5.29S444.72,228.51,444.49,227.7Z"></path><path d="M451.08,235.12h-7.41a16.47,16.47,0,0,1,1.51-1.12c3.56-2.38,8.88-4,9.36-3.57C454.87,230.73,453.32,233,451.08,235.12Z"></path><path d="M445.62,220a2.9,2.9,0,0,1,1.36-1.18,11.29,11.29,0,0,1,2-.79,20.68,20.68,0,0,1,4.56-.75c.16,0,.21.35.06.4-1.41.45-2.85.75-4.28,1.15a11.17,11.17,0,0,0-1.93.71c-.29.14-.58.29-.86.46s-.54.41-.83.35C445.59,220.36,445.59,220.12,445.62,220Z"></path><path d="M443.87,227.39a9.53,9.53,0,0,1,1.65-.59,5.83,5.83,0,0,1,1.72-.19c.14,0,.18.27.05.32a30.94,30.94,0,0,0-3.08,1.17,11.15,11.15,0,0,0-1.37.72,2.37,2.37,0,0,0-.88.9c-.17.3-.53.25-.5-.13C441.54,228.46,443,227.81,443.87,227.39Z"></path><path d="M437.13,235.12h-.81c-.87-1-1.48-5.33-.4-9.28,1.28-4.63,3.93-7.8,4.53-8s1.86,5.54.23,10.81A16.18,16.18,0,0,1,437.13,235.12Z"></path></g><path d="M432.88,211.83a12.07,12.07,0,0,0,2.4-9.93c-.78-5.1-1-9.71-1.77-10.58s-3.66,5.34-4.19,10.81S430.77,209.87,432.88,211.83Z" style="fill:#BA68C8"></path><path d="M430.87,217.31c-.53.83-4.38-1.78-6.44-5.48s-2.32-7.35-2.05-7.82,5.41,3.72,6.85,6.69S431.22,216.78,430.87,217.31Z" style="fill:#BA68C8"></path><path d="M432.29,227.14c-.4,1-5.24-1-8.36-4.62s-4.26-7.62-4.07-8.22,6.82,2.9,9.09,5.87S432.54,226.47,432.29,227.14Z" style="fill:#BA68C8"></path><path d="M435.29,222.85c-1.1-.18-.08-5.32,2.88-9.1s6.63-5.67,7.25-5.6-.42,5.83-4,10.06C439.06,221.07,436,223,435.29,222.85Z" style="fill:#BA68C8"></path><path d="M430,229.92a20.9,20.9,0,0,1,4,5.2h-5.48a16.59,16.59,0,0,1-3.15-2.07c-3.66-3.1-5.42-6.84-5.33-7.45S427.26,227.36,430,229.92Z" style="fill:#BA68C8"></path><path d="M435.39,222.84a15.09,15.09,0,0,0-.75,2.27c-.16.71-.32,1.42-.42,2.14.32,2.63.76,5.25,1.26,7.87h-.89c-.31-1.2-.59-2.42-.8-3.65l-.17-.5a14.67,14.67,0,0,0-1-2.09c-.37-.65-.8-1.26-1.23-1.88a11.62,11.62,0,0,1-1.32-1.83c0-.09,0-.38.14-.33a2.36,2.36,0,0,1,.84.63c.3.29.6.59.88.9a10.72,10.72,0,0,1,1.34,1.86c-.15-1.2-.27-2.41-.36-3.62-.4-1.27-.77-2.56-1.27-3.81-.36-.89-.73-1.79-1.15-2.66a19.46,19.46,0,0,1-1.43-3c0-.1,0-.32.17-.23a6.91,6.91,0,0,1,1.85,2.45,21.93,21.93,0,0,1,1.37,2.85l.21.59a66.85,66.85,0,0,1,.36-12.89c0-.2.22-.17.24,0,.41,4.65.13,9.35.42,14,.05.89.14,1.77.22,2.65a12.37,12.37,0,0,1,.9-2.32,6.7,6.7,0,0,1,1.54-2.18c.2-.17.28.23.22.35C436.23,221.25,435.74,222,435.39,222.84Z" style="fill:#BA68C8"></path><path d="M409.84,158.57c-.91,1.79-1,3.66.69,6,2.78-.07,4.36-1.16,5.28-2.94a3.37,3.37,0,1,0-6-3.07Z" style="fill:#BA68C8"></path><path d="M415.78,168.23c-1.91.63-3.29,1.9-3.73,4.76,2,1.9,3.92,2.24,5.82,1.61a3.36,3.36,0,1,0-2.09-6.37Z" style="fill:#BA68C8"></path><path d="M407.78,182.37c-1.17,1.63-1.55,3.47-.22,6,2.76.35,4.49-.49,5.66-2.11a3.37,3.37,0,1,0-5.44-3.93Z" style="fill:#BA68C8"></path><path d="M396.92,167.91c.76,1.86,2.13,3.15,5,3.39,1.75-2.16,2-4.07,1.2-5.93a3.37,3.37,0,1,0-6.21,2.54Z" style="fill:#BA68C8"></path><path d="M391.66,181c1,1.73,2.55,2.81,5.44,2.63,1.43-2.38,1.36-4.3.35-6a3.37,3.37,0,1,0-5.79,3.4Z" style="fill:#BA68C8"></path><path d="M408,170.56a56.88,56.88,0,0,0-3.11,7.64,48,48,0,0,0-1.93,8.54,41,41,0,0,0-.35,4.82c0,.8.07,1.64.11,2.48l.52-.66c.88-1.13,1.78-2.26,2.67-3.39a35.9,35.9,0,0,0,2.24-3c.15-.23.28.17.22.3a14.74,14.74,0,0,1-2.21,3.37c-.88,1.14-1.76,2.29-2.65,3.43-.26.33-.51.66-.78,1s-.36.47-.56.71a28.59,28.59,0,0,1-2.75,3h-1a29.61,29.61,0,0,0,3.58-3.84c0-.26,0-.52,0-.77-.05-.77-.06-1.54-.06-2.31a40.36,40.36,0,0,1,.24-4.39,46.31,46.31,0,0,1,1.83-8.72A57.31,57.31,0,0,1,407,171q1-2.05,2.12-4a21.4,21.4,0,0,1,2.71-4c.05-.06.11.1.09.14C410.79,165.63,409.22,168,408,170.56Z" style="fill:#BA68C8"></path><path d="M405.91,160.08c0-.13.16-.08.18,0a11.94,11.94,0,0,1,.27,2.31c.08,1,.13,1.91.22,2.87.2,2,.55,4,.85,6.05.05.37-.49.82-.63.33a30.43,30.43,0,0,1-.92-5.45A19.69,19.69,0,0,1,405.91,160.08Z" style="fill:#BA68C8"></path><path d="M401.63,169.4c0-.15.17-.16.2,0,.09.45.24.86.31,1.31l.24,1.44c.15.91.29,1.82.49,2.73.38,1.75.87,3.48,1.28,5.23.06.23-.25.6-.4.28a22.19,22.19,0,0,1-1.65-5.24c-.17-.89-.34-1.8-.44-2.71A19,19,0,0,1,401.63,169.4Z" style="fill:#BA68C8"></path><path d="M405.45,177a19.29,19.29,0,0,1,2.32-2.1,17.14,17.14,0,0,1,2.75-1.68,8.33,8.33,0,0,1,3.09-1c.18,0,.15.34,0,.4-.94.46-1.92.81-2.86,1.28a18.37,18.37,0,0,0-2.48,1.5,16.77,16.77,0,0,0-2.24,1.88c-.31.31-.61.64-.9,1a4.89,4.89,0,0,0-.46.56c-.13.2-.19.42-.32.62s-.17.16-.24.06C403.59,178.79,405,177.48,405.45,177Z" style="fill:#BA68C8"></path><path d="M396.54,182.59a.1.1,0,0,1,.08-.06c.34,0,.45.5.58.75a12,12,0,0,0,.65,1.09,19.05,19.05,0,0,0,1.46,2,17.36,17.36,0,0,0,1.8,1.84c.49.44,1.46,1.06,1.37,1.82,0,.13-.15.41-.33.33-.36-.14-.59-.56-.86-.82l-.94-.82a17.25,17.25,0,0,1-1.77-1.86,17.5,17.5,0,0,1-1.44-2.08C396.8,184.21,396.19,183.27,396.54,182.59Z" style="fill:#BA68C8"></path><path d="M410.38,193.77c-.8.78-1.59,1.55-2.41,2.31a37.44,37.44,0,0,1-3.2,2.7h-1.29a45.61,45.61,0,0,0,3.91-3.18c.76-.69,1.5-1.4,2.24-2.12a12.87,12.87,0,0,0,2.08-2.28c.09-.15.2.05.19.15A4.08,4.08,0,0,1,410.38,193.77Z" style="fill:#BA68C8"></path><path d="M395.74,195c0,.73,0,1.47.08,2.2,0,.53.15,1.07.22,1.61h-.92c-.11-.46-.19-.94-.25-1.38a15.39,15.39,0,0,1-.17-2.35c0-1.44.05-3.21.9-4.44a.12.12,0,0,1,.21,0,4.34,4.34,0,0,1,0,2.06C395.81,193.45,395.74,194.2,395.74,195Z" style="fill:#BA68C8"></path><g style="opacity:0.55"><path d="M409.84,158.57c-.91,1.79-1,3.66.69,6,2.78-.07,4.36-1.16,5.28-2.94a3.37,3.37,0,1,0-6-3.07Z" style="fill:#fff"></path><path d="M415.78,168.23c-1.91.63-3.29,1.9-3.73,4.76,2,1.9,3.92,2.24,5.82,1.61a3.36,3.36,0,1,0-2.09-6.37Z" style="fill:#fff"></path><path d="M407.78,182.37c-1.17,1.63-1.55,3.47-.22,6,2.76.35,4.49-.49,5.66-2.11a3.37,3.37,0,1,0-5.44-3.93Z" style="fill:#fff"></path><path d="M396.92,167.91c.76,1.86,2.13,3.15,5,3.39,1.75-2.16,2-4.07,1.2-5.93a3.37,3.37,0,1,0-6.21,2.54Z" style="fill:#fff"></path><path d="M391.66,181c1,1.73,2.55,2.81,5.44,2.63,1.43-2.38,1.36-4.3.35-6a3.37,3.37,0,1,0-5.79,3.4Z" style="fill:#fff"></path><path d="M408,170.56a56.88,56.88,0,0,0-3.11,7.64,48,48,0,0,0-1.93,8.54,41,41,0,0,0-.35,4.82c0,.8.07,1.64.11,2.48l.52-.66c.88-1.13,1.78-2.26,2.67-3.39a35.9,35.9,0,0,0,2.24-3c.15-.23.28.17.22.3a14.74,14.74,0,0,1-2.21,3.37c-.88,1.14-1.76,2.29-2.65,3.43-.26.33-.51.66-.78,1s-.36.47-.56.71a28.59,28.59,0,0,1-2.75,3h-1a29.61,29.61,0,0,0,3.58-3.84c0-.26,0-.52,0-.77-.05-.77-.06-1.54-.06-2.31a40.36,40.36,0,0,1,.24-4.39,46.31,46.31,0,0,1,1.83-8.72A57.31,57.31,0,0,1,407,171q1-2.05,2.12-4a21.4,21.4,0,0,1,2.71-4c.05-.06.11.1.09.14C410.79,165.63,409.22,168,408,170.56Z" style="fill:#fff"></path><path d="M405.91,160.08c0-.13.16-.08.18,0a11.94,11.94,0,0,1,.27,2.31c.08,1,.13,1.91.22,2.87.2,2,.55,4,.85,6.05.05.37-.49.82-.63.33a30.43,30.43,0,0,1-.92-5.45A19.69,19.69,0,0,1,405.91,160.08Z" style="fill:#fff"></path><path d="M401.63,169.4c0-.15.17-.16.2,0,.09.45.24.86.31,1.31l.24,1.44c.15.91.29,1.82.49,2.73.38,1.75.87,3.48,1.28,5.23.06.23-.25.6-.4.28a22.19,22.19,0,0,1-1.65-5.24c-.17-.89-.34-1.8-.44-2.71A19,19,0,0,1,401.63,169.4Z" style="fill:#fff"></path><path d="M405.45,177a19.29,19.29,0,0,1,2.32-2.1,17.14,17.14,0,0,1,2.75-1.68,8.33,8.33,0,0,1,3.09-1c.18,0,.15.34,0,.4-.94.46-1.92.81-2.86,1.28a18.37,18.37,0,0,0-2.48,1.5,16.77,16.77,0,0,0-2.24,1.88c-.31.31-.61.64-.9,1a4.89,4.89,0,0,0-.46.56c-.13.2-.19.42-.32.62s-.17.16-.24.06C403.59,178.79,405,177.48,405.45,177Z" style="fill:#fff"></path><path d="M396.54,182.59a.1.1,0,0,1,.08-.06c.34,0,.45.5.58.75a12,12,0,0,0,.65,1.09,19.05,19.05,0,0,0,1.46,2,17.36,17.36,0,0,0,1.8,1.84c.49.44,1.46,1.06,1.37,1.82,0,.13-.15.41-.33.33-.36-.14-.59-.56-.86-.82l-.94-.82a17.25,17.25,0,0,1-1.77-1.86,17.5,17.5,0,0,1-1.44-2.08C396.8,184.21,396.19,183.27,396.54,182.59Z" style="fill:#fff"></path><path d="M410.38,193.77c-.8.78-1.59,1.55-2.41,2.31a37.44,37.44,0,0,1-3.2,2.7h-1.29a45.61,45.61,0,0,0,3.91-3.18c.76-.69,1.5-1.4,2.24-2.12a12.87,12.87,0,0,0,2.08-2.28c.09-.15.2.05.19.15A4.08,4.08,0,0,1,410.38,193.77Z" style="fill:#fff"></path><path d="M395.74,195c0,.73,0,1.47.08,2.2,0,.53.15,1.07.22,1.61h-.92c-.11-.46-.19-.94-.25-1.38a15.39,15.39,0,0,1-.17-2.35c0-1.44.05-3.21.9-4.44a.12.12,0,0,1,.21,0,4.34,4.34,0,0,1,0,2.06C395.81,193.45,395.74,194.2,395.74,195Z" style="fill:#fff"></path></g><path d="M401.43,209.29c.72,1.87,2.06,3.19,4.94,3.48,1.8-2.12,2-4,1.32-5.9a3.37,3.37,0,1,0-6.26,2.42Z" style="fill:#BA68C8"></path><path d="M397.41,218.9c1.84.8,3.72.77,5.95-1.07-.25-2.77-1.44-4.28-3.28-5.08a3.36,3.36,0,1,0-2.67,6.15Z" style="fill:#BA68C8"></path><path d="M401.07,216.88a3,3,0,0,1,1.66.31,9.27,9.27,0,0,1,1.35.64,11.81,11.81,0,0,1,2.58,2,12.31,12.31,0,0,1,1.9,2.41c0-.35-.06-.71-.1-1.06a22.27,22.27,0,0,0-.74-3.79c-.34-1.18-.82-2.31-1.25-3.46a6.86,6.86,0,0,1-.68-3.29c0-.09.09-.08.14,0a9.05,9.05,0,0,1,.77,1.84c.22.58.47,1.14.7,1.72a26.72,26.72,0,0,1,1.1,3.27c0-.28.08-.56.12-.83a9.2,9.2,0,0,1,1.79-4.43c.14-.16.2.19.17.27-.39,1.29-.93,2.52-1.21,3.85A22.69,22.69,0,0,0,409,220a14.83,14.83,0,0,1,.15,3.7h-.95a8.74,8.74,0,0,0-.5-1,11.29,11.29,0,0,0-2-2.35,14.12,14.12,0,0,0-2.29-1.79c-.39-.24-.8-.45-1.21-.67s-1-.36-1.24-.71C401,217.12,401,216.91,401.07,216.88Z" style="fill:#BA68C8"></path><g style="opacity:0.35000000000000003"><path d="M401.43,209.29c.72,1.87,2.06,3.19,4.94,3.48,1.8-2.12,2-4,1.32-5.9a3.37,3.37,0,1,0-6.26,2.42Z" style="fill:#fff"></path><path d="M397.41,218.9c1.84.8,3.72.77,5.95-1.07-.25-2.77-1.44-4.28-3.28-5.08a3.36,3.36,0,1,0-2.67,6.15Z" style="fill:#fff"></path><path d="M401.07,216.88a3,3,0,0,1,1.66.31,9.27,9.27,0,0,1,1.35.64,11.81,11.81,0,0,1,2.58,2,12.31,12.31,0,0,1,1.9,2.41c0-.35-.06-.71-.1-1.06a22.27,22.27,0,0,0-.74-3.79c-.34-1.18-.82-2.31-1.25-3.46a6.86,6.86,0,0,1-.68-3.29c0-.09.09-.08.14,0a9.05,9.05,0,0,1,.77,1.84c.22.58.47,1.14.7,1.72a26.72,26.72,0,0,1,1.1,3.27c0-.28.08-.56.12-.83a9.2,9.2,0,0,1,1.79-4.43c.14-.16.2.19.17.27-.39,1.29-.93,2.52-1.21,3.85A22.69,22.69,0,0,0,409,220a14.83,14.83,0,0,1,.15,3.7h-.95a8.74,8.74,0,0,0-.5-1,11.29,11.29,0,0,0-2-2.35,14.12,14.12,0,0,0-2.29-1.79c-.39-.24-.8-.45-1.21-.67s-1-.36-1.24-.71C401,217.12,401,216.91,401.07,216.88Z" style="fill:#fff"></path></g><path d="M415.29,191.26c-1.31,1.52-1.84,3.32-.74,6,2.72.58,4.51-.1,5.82-1.63a3.36,3.36,0,1,0-5.08-4.37Z" style="fill:#BA68C8"></path><path d="M415.64,196.53a6.34,6.34,0,0,0-.55.73c-.32.47-.65.94-.95,1.42a12.57,12.57,0,0,0-.77,1.39c-.08.19-.15.39-.22.59h-.77c.06-.22.13-.41.17-.53a8.34,8.34,0,0,1,.87-1.71c.36-.54.74-1.06,1.15-1.57a8.8,8.8,0,0,1,.63-.74,1.8,1.8,0,0,1,.77-.6c.24,0,.22.35.16.47A3.64,3.64,0,0,1,415.64,196.53Z" style="fill:#BA68C8"></path><g style="opacity:0.35000000000000003"><path d="M415.29,191.26c-1.31,1.52-1.84,3.32-.74,6,2.72.58,4.51-.1,5.82-1.63a3.36,3.36,0,1,0-5.08-4.37Z" style="fill:#fff"></path><path d="M415.64,196.53a6.34,6.34,0,0,0-.55.73c-.32.47-.65.94-.95,1.42a12.57,12.57,0,0,0-.77,1.39c-.08.19-.15.39-.22.59h-.77c.06-.22.13-.41.17-.53a8.34,8.34,0,0,1,.87-1.71c.36-.54.74-1.06,1.15-1.57a8.8,8.8,0,0,1,.63-.74,1.8,1.8,0,0,1,.77-.6c.24,0,.22.35.16.47A3.64,3.64,0,0,1,415.64,196.53Z" style="fill:#fff"></path></g></g></g><g id="freepik--Footprints--inject-13"><g id="freepik--footprints--inject-13" style="opacity:0.2"><path d="M367.11,278.24c-10.27,3-12.2,6.8-6.11,11.67s20.14,5.54,27.31,2.39c9.2-4,8.76-8.23,17.79-9.36s17.34-2.49,9.71-8.31c-5.51-4.2-14.25-6-24.05-1.17S374.83,276,367.11,278.24Z" style="fill:#BA68C8"></path><path d="M415.19,287.29c-9.5,4.91-10.64,9.06-3.71,12.64s20.84,1.48,27.25-3c8.23-5.75,7-9.78,15.61-12.66s16.51-5.85,7.89-10.06c-6.22-3-15.15-3.13-23.82,3.57S422.32,283.6,415.19,287.29Z" style="fill:#BA68C8"></path></g></g><g id="freepik--snow-angel--inject-13"><g id="freepik--Angel--inject-13"><path id="freepik--angel--inject-13" d="M460.17,368.21c6-4.81,11.87-11.88,7.84-16.91-2.12-2.64-6.07-4.6-10.15-6.2-18.23-6.9-175.61-66.76-207.87-83-7.33-3.7,3.73-3.05,23.11-.73,25.64,3.08,56.52,6.32,62.86,6.3,7.46,0,5.18-10.26,4.2-13.78-4.87-17.59-21.11-44.16-46.24-60.67-34.65-22.78-45-25.19-53.08-14.56-3.46,4.55-29.13,36.25-35.19,43.68C201,228,197.24,233,193,236.86c-8.68,8-11.35,1.4-8.62-2.61,6.38-9.36-.55-18.48-6.06-22.89-14.83-11.85-34.7-11.23-49.8-2-19.19,11.7-20.18,26-7,34.8,5.49,3.66,20.14,9.71,37.83,7.28,2.74-.37,11,2.43-4.74,8.93a280.58,280.58,0,0,1-34.29,10.49c-8.32,1.85-55.28,12.39-63.95,14.56-26,6.53-12.8,26.78,12.24,53.25,13.92,14.7,42.59,30,64.05,35,14.08,3.23,20.22,1.55,22.08.38,2.24-1.41,3.41-4.95,4-7.53,3.29-13.49,11.71-46,14.5-60,3.54-17.81,12-6.26,15.62-1.67,15.8,20.07,95.43,120.16,107.37,130.69a27.21,27.21,0,0,0,10.75,5.86c8.71,2.33,17.94-.5,26.27-4,19.58-8.19,43.54-17.31,64-29.15S446,379.52,460.17,368.21Z" style="fill:#BA68C8;opacity:0.2"></path><path d="M124.79,380.46c-2.74-5.84-10.35-7.6-16.13-5.73a14.13,14.13,0,0,0-7.71-7.81c-4.43-2-9.3-1.95-14-1.32-2.28-8.77-11.45-15.93-20.58-14.52-.22,0-.33.59-.08.62,8.66.85,16.2,6.95,17.7,15.69.19,1.09,1.48,1.47,2.4,1.31,4.37-.76,9.11-1.15,13.34.48a12,12,0,0,1,7.2,7.3c.2.61,1.13,1.33,1.8,1,5.4-2.94,11.49-.42,15.27,3.85C124.59,382,125.09,381.09,124.79,380.46Z" style="fill:#BA68C8;opacity:0.2"></path><path d="M100.8,269.82c-4.43-1.55-10.46-1.42-14.14,1.79a14.72,14.72,0,0,0-17.3,4.26,15.31,15.31,0,0,0-11.2-.29,14.32,14.32,0,0,0-7.77,7.62c0,.11,0,.3.14.15,4.45-5.53,12.33-8.19,18.94-4.85a1.44,1.44,0,0,0,1.91-.3,12.9,12.9,0,0,1,15.51-4.46c.27.12.73.21,1-.06,3.29-4,8.31-3.06,12.87-3.13C101,270.54,101.06,269.91,100.8,269.82Z" style="fill:#BA68C8;opacity:0.2"></path><path d="M229.65,369.73a9.17,9.17,0,0,0-.91-2.37,12,12,0,0,0-3.68-4.07c-1.54-1.08-3.85-1.4-5.69-1.56a12.54,12.54,0,0,0-6.47,1c-.12.06-.21.42,0,.44,1.8.19,3.61.18,5.41.43a13.32,13.32,0,0,1,5.12,1.59,9.62,9.62,0,0,1,3.51,3.68,20.25,20.25,0,0,1,2,5.07c.4,1.76,1,.46,1-.6A13,13,0,0,0,229.65,369.73Zm-9-9.62c.15.26.32-.23.31-.33-.42-4.63-5.14-7.9-9.52-8.71.93-8.18-6.44-14.85-14.28-15.48a14.83,14.83,0,0,0-2.86-11.6c-2.88-3.67-8.77-6.87-13.49-5.43-.12,0-.24.36-.07.4a24.7,24.7,0,0,1,6.39,1.74,11.75,11.75,0,0,1,4.64,4.37,13.86,13.86,0,0,1,1.48,11.42c-.47,1.51,1.33,2.3,2.55,2.05a10.7,10.7,0,0,1,9.55,2.54c2.86,2.67,3.72,6.84,3.39,10.58a1.61,1.61,0,0,0,1.74,1.62,9.82,9.82,0,0,1,6.2,1.85C218.58,356.44,219.5,358.2,220.64,360.11Z" style="fill:#BA68C8;opacity:0.2"></path><path d="M392.8,422.34c-5.85-1.56-11.38,2.85-13,8.26a16.44,16.44,0,0,0-16-1c-5.42,2.58-9.1,7.6-11.18,13.1a18.07,18.07,0,0,0-13.79-.63,15.09,15.09,0,0,0-9.37,10.26c0,.2.14.67.36.36,2.54-3.62,5.53-6.74,9.76-8.37a16,16,0,0,1,13.32.88c.65.36,1.55.4,1.83-.43,1.75-5.19,5.09-10.19,10.07-12.75,4.76-2.46,10.9-2.33,15.05,1.3.45.4,2,.93,2.09-.16a10,10,0,0,1,3.14-6.72c2.22-2.09,4.81-2.79,7.77-3.13C393.19,423.24,393.15,422.44,392.8,422.34Z" style="fill:#BA68C8;opacity:0.2"></path><path d="M330.18,285.35a7.43,7.43,0,0,0-2.66-1.75,9.18,9.18,0,0,0-3.21-.46,11.1,11.1,0,0,0-5,1.27,8.86,8.86,0,0,0-4.56-6,10.63,10.63,0,0,0-5.23-1.16,16.17,16.17,0,0,0-2.85.33,11.6,11.6,0,0,0-1.28.36c-.4-3.45-3.46-6.35-6.61-7.64a13.16,13.16,0,0,0-12.08,1.35c-.29.19-.27,1.09.19,1,3.63-.74,7.64-1.39,11,.65a9.3,9.3,0,0,1,4,6.38,1.87,1.87,0,0,0,2,1.36,6.72,6.72,0,0,0,2.34-.84,13.79,13.79,0,0,1,2-.56,9.85,9.85,0,0,1,5,.13,6.57,6.57,0,0,1,4.85,5.94c0,.46.69,1.27,1.2.91a9.57,9.57,0,0,1,4.87-1.74,11,11,0,0,1,2.62.14c.34.06.68.11,1,.18.69.16,1.62.28,2.33.5C330.21,285.73,330.26,285.43,330.18,285.35Z" style="fill:#BA68C8;opacity:0.2"></path><path d="M344,233.13a9.22,9.22,0,0,0-4.53-3.9,12.31,12.31,0,0,0-6.28-11,9.59,9.59,0,0,0-2-9.86c-2.35-2.38-7.2-4.45-10.38-2.51-.26.16-.3.92.09,1a14.05,14.05,0,0,1,4.54.86,8.92,8.92,0,0,1,3.73,3.47,10.22,10.22,0,0,1,1.14,7,1.46,1.46,0,0,0,1,1.54,8.43,8.43,0,0,1,5.9,9.76c-.11.6.52,1.19,1,1.36,3.62,1.27,5.75,6,4.94,9.58,0,.11.07.28.17.13C344.74,238.32,345.35,235.51,344,233.13Z" style="fill:#BA68C8;opacity:0.2"></path><path d="M254.92,167.6a7.1,7.1,0,0,0-9.22-.85,12.66,12.66,0,0,0-1.16,1,8.74,8.74,0,0,0-4.82-.75c-3,.52-5.47,1.67-6.95,4a10.68,10.68,0,0,0-1.48,3.86,7.51,7.51,0,0,0,.15,3.49,8.5,8.5,0,0,0-6.55,3.68c-2.11,3-2.19,6.57-1.21,10,.08.3.39.27.5,0,1.16-2.7,1.2-5.83,3-8.28a6,6,0,0,1,5.81-2.71c1.17.19,1.27-.81.88-1.79a9.44,9.44,0,0,1,.86-6.66,8.85,8.85,0,0,1,6.67-3.4,8.27,8.27,0,0,1,1.72.08,7.27,7.27,0,0,1,1.67.4c1.18.48,1.84-.63,2.57-1.18a6.23,6.23,0,0,1,7.35-.19C255,168.53,255.09,167.78,254.92,167.6Z" style="fill:#BA68C8;opacity:0.2"></path></g></g><g id="freepik--Character--inject-13"><path id="freepik--Shadow--inject-13" d="M419.69,355.23a119.3,119.3,0,0,0-13.85-7.16,49,49,0,0,1-7.62-4.63c.36-1.78-.4-3.67-2.21-3.87a1.61,1.61,0,0,1-.75-.16,1.51,1.51,0,0,1-.5-.59,5.82,5.82,0,0,0-2.18-2.17,3.34,3.34,0,0,0-3-.09,4.61,4.61,0,0,0-2.2-2.68,2.27,2.27,0,0,0-3,1,4.16,4.16,0,0,0-3.85-.31c-6.31-3.93-13.08-8.17-18.25-11.41-17.53-11-20.23-12.24-34.53-17.81-9.56-3.73-36.88-14.09-57.59-21.48,0,0-4.53-2-7.91-3.1.15-.48.15-1.58-2-3-2.8-1.83-13.94-6.19-18-7.69-5.57-5.14-13.47-12.49-13.47-12.49s0-.36-.07-1l26.92-2.9,45.39,2.49a2,2,0,0,1-.35-.06c.11,0,.23,0,.35.06a3.77,3.77,0,0,0,1.36-.17c5.67,5.06,7.88,5.47,13.29,6,3.12.29,5.09.56,5.44.32.42-2.69-2.47-3.67-4.5-4.19a21.11,21.11,0,0,1-4.15-1.6c-1.26-.69-.88-1.26.93-1.1,3.47.29,8.81.31,13.81,1.17,1.58.27,6.75,1.63,5.85-.93a15.73,15.73,0,0,0-4.51-2.39,48.41,48.41,0,0,0-5.28-1.64l-.36-.08.38,0,.13,0,.33.05h.12l.46.08h0l.45.08h.07c.67.12,1.33.26,1.85.37s.82.19.93.22l3.19,1.13c2.18.76,4.7,1.44,5.41,0,.23-.48,0-1.42-2.71-2.75,0-.9-.12-1.64-2.12-2.68,0-1.2-.84-1.51-1.62-2-1.83-1.12-7.1-2.85-10.34-3.86a88.42,88.42,0,0,0-13.81-.69,3.09,3.09,0,0,0-2-1.88l-37.31-4.35a89.36,89.36,0,0,0-14.33-.8c-3.29.12-15.61.43-26.56.81a13.59,13.59,0,0,0-3.17-1.84c-3.51-1.43-7.34,3.21-10,0-1-1.12-1.36-2.6-2.17-3.83a6.73,6.73,0,0,0-4.93-2.92,7.79,7.79,0,0,0-4.59.77c2.79-3.82,6-2.58,8.79-2.16a7.15,7.15,0,0,0,4.17-.48,4.26,4.26,0,0,0,2.46-3.25,3.08,3.08,0,0,0-2.12-3.28c1.49.76,1.36,3.17,0,4.21a5.14,5.14,0,0,1-4.77.42c-1.58-.52-3-1.44-4.6-1.95a9.86,9.86,0,0,0-6.77.27c-2.21.91-4.05,2.62-6.35,3.28a7.62,7.62,0,0,1-5.27-.47c-.28-.74-.6-1.5-1-2.28a2.66,2.66,0,0,0,1-3c-.49-1.08-1.91-1.52-3.38-1.14l-.77-1.19c1.76-7.69-5-11.41-7.4-12.07.15-.42.26-.61-1-2.22s-2.08-3.09-4-3a3,3,0,0,0-.83.2c-8.22-5-18.12-3.9-25.93,1.35a29.64,29.64,0,0,0-4.5,3.71,3,3,0,0,0-5.06-.44,3.19,3.19,0,0,0-2.89-2.9,2.64,2.64,0,0,0-2.65,2.88,4.08,4.08,0,0,0-2.07-.68,3.34,3.34,0,0,0-2.56,1.18,2.81,2.81,0,0,0,0,3.61c-.8-.27-2,.58-2.2.79a2.94,2.94,0,0,0,2.92,4.86,3.33,3.33,0,1,0,4.16,5,2,2,0,0,0,1.39,2.29,3.52,3.52,0,0,0,2.2,0,24.13,24.13,0,0,0,4.31,12.43,43.6,43.6,0,0,0,6.87,7.82,9.3,9.3,0,0,0,.44,1.33c1,2.18,5.11,3.87,6,3.69a.49.49,0,0,0,.24-.17,4.87,4.87,0,0,1-1.86,1.85c-1.37.77-3,1.11-4.26,2a6.1,6.1,0,0,0-2.53,3.77c-.5,2.39.42,5.14-.92,7.19s-4.18,2.28-6.62,2.41a19.12,19.12,0,0,0-5.87,1,7.51,7.51,0,0,0-4.35,3.86c-.93,2.18-.91,4.84,1.47,6.5a4.64,4.64,0,0,1-.45-5.48,3.89,3.89,0,0,1,1.71-1.27,11.78,11.78,0,0,1,6.19-.42,24.83,24.83,0,0,0,6.25.46,6.12,6.12,0,0,0,5-3.27c-.1.25.58,2,.58,2.51a5.1,5.1,0,0,1-.78,2.7c-1,1.81-2.76,3.2-3.52,5.19-1.4,3.64,1.19,7.71,4.45,9.84a.53.53,0,0,0,.1.06c-1.9,8.15-3.58,16.4-4.23,19.22-1,4.34-.83,4.47-1.24,10.46S137,332,137,332a5.86,5.86,0,0,0,.83,3.79c-1,1.75-2.35,3.67-4.62,11.68-2.15,7.6-2.54,9.4-3.3,12.81-.61,2.74,2.09,4,2.9,1.71,1.24-3.54,2.23-6.4,3.46-9.87.37-1.07.86-1.09.68,0-.71,4.18-1.66,7.69-2.58,14.53-.39,2.85,2.34,3.44,2.94,1.24,1-3.55,1.39-5.43,1.77-7.15.73-3.21,1.06-5,1.35-6.26.36-1.59,1.26-.9,1.11.08-.37,2.43-1.54,10.1-1.9,14.68-.24,3.15,3.26,3.89,3.8.69.89-5.22,1.69-10.89,2.31-14.92.3-2,1-1.3,1-.13,0,.64-.34,8.45-.51,11.5-.23,4.06,3.28,3.94,3.69.74.71-5.6,1.27-13.24,1.66-16.69.3-2.68,2,1.82,2.81,4.27a4.52,4.52,0,0,0,5.61,3.16c.55-.41-.24-1.68-1.3-4.52-1.73-4.66-1.17-8.17-3.52-13a2.72,2.72,0,0,0,.74-1.57s2.64-22.22,3.55-26c.71-2.89,6.51-17.05,9.54-24.45.76.58,1.49,1.14,2.18,1.65,4.82,3.65,22.22,9.68,28.42,17.62,2.11,2.7,5.17,7.92,8.1,11.77,1.37,1.79,2.82,1.28,3.19,1.11a18.66,18.66,0,0,0,2.49,3.26,59.74,59.74,0,0,0,11.39,10.81c13.14,9.69,35.78,23.53,41.94,27.08,0,0,1.41,9.58,14.53,23.84.73.8,1.8,1.9,3.12,3.19a3.64,3.64,0,0,0-1,1.81,2.23,2.23,0,0,0,1.94,2.67,3.53,3.53,0,0,0,2.54,4.13,2.91,2.91,0,0,1,1.46.51,2.63,2.63,0,0,1,.51,1.14,4,4,0,0,0,1.36,1.89c.58.44,1.81.56,2.13,1.21a10.51,10.51,0,0,1,.33,1.13,2,2,0,0,0,1.7,1.29c.73,0,1.66,0,2-.68l0-.05a100.23,100.23,0,0,1,7.58,8c3.39,4.3,6.94,8.44,9.89,13,3.9,6,12.06,6.57,17.82,4.36A12.68,12.68,0,0,0,338,425.4a7.69,7.69,0,0,0,1.66-6.25,12.64,12.64,0,0,0-2.33-4.46l-9.77-13.86c-2.93-4.15-6.19-8.07-8.76-12.41l.07.12c1.11-1.44,1.21-3.42-.31-4.4a1.91,1.91,0,0,1-.61-.48,1.6,1.6,0,0,1-.18-.75,5.64,5.64,0,0,0-1-2.91,3.29,3.29,0,0,0-2.63-1.42,4.68,4.68,0,0,0-.78-3.38,2.27,2.27,0,0,0-3.15-.44A3.89,3.89,0,0,0,308,373c-4.41-8-8.41-15.06-10.35-18.2-3.91-6.29-10.34-16.78-16.57-25.18,4.73,1,9.58,2,14.41,3l1.18.23c7.37,1.47,14.68,2.81,21.51,3.74l2,.26c2.26.28,4.46.52,6.58.69,8.34,7.32,11.42,8.54,25.7,13.93,5,1.9,10.65,3.88,16.57,5.92a4,4,0,0,0-.34,2.73,2.25,2.25,0,0,0,2.93,1.53,3.53,3.53,0,0,0,4.11,2.56,2.83,2.83,0,0,1,1.53-.19,2.63,2.63,0,0,1,1,.79,4.08,4.08,0,0,0,2.06,1.08c.71.15,1.87-.3,2.45.14.31.24.51.6.8.87a2,2,0,0,0,2.1.39c.67-.28,1.5-.82,1.48-1.55,3.9,1.48,7.87,3,10.23,3.94,4.65,1.87,9,4.65,13.4,7,4.23,2.25,8.88,1.29,12.73-1.21a18.23,18.23,0,0,0,5.68-5.78c1.16-1.91,1.9-4.34,1-6.37a8.51,8.51,0,0,0-3-3.11C424.74,358.42,422.24,356.77,419.69,355.23Zm-96.9-103.64Zm-26.69,151h0l.09.09Zm22.33-14.77-.17-.28h0ZM149.49,245.62l0,0h0Zm248.62,97.74.09.07Zm-12.24,21.86.47.18Z" style="opacity:0.1"></path><g id="freepik--character--inject-13"><g id="freepik--Bottom--inject-13"><path d="M394.74,337.07c-5.8-3.39-23.89-14.7-34.82-21.57-17.54-11-20.23-12.24-34.53-17.81-12.58-4.9-55.92-21.3-74.47-27.29-26.07-3.13-44.11,18.85-46.85,32.72.7,2.18,3.58,12.9,18.35,23.79,13.14,9.7,40.12,27.74,46.28,31.3,0,0,5.13,12,11.81,19.47,5.73,6.4,33.29,30.55,33.29,30.55s10-3.2,10-9.68c0,0-22.84-42.32-28.48-51.41-3.9-6.29-10.33-16.78-16.56-25.17,15.47,3.18,32.11,6.79,45.69,7.87,8.33,7.33,11.41,8.54,25.7,13.93,13,4.9,30,10.35,45.76,16.07Z" style="fill:#455a64"></path><path d="M335.82,335.59c-5.34-3.95-9.48-8.66-11.42-9.18s-32.49-5.82-41.94-10.73-18.14-18.14-18.14-18.14,1.3-10.24-3.75-16.19a17.81,17.81,0,0,1-.91,16.9s11.56,13.56,19.1,23.72h0c15.47,3.18,32.11,6.79,45.69,7.87,8.14,7.16,11.3,8.45,24.75,13.57A99.14,99.14,0,0,1,335.82,335.59Z" style="fill:#37474f"></path><path d="M327.24,374.3c-2.45,2.66-3.59,6.29-4.35,10-.34,1.63-.72,3.62-1,3.9-1.05.47-4.43-6-7.2-10.44-3.86-3.84-13.33.58-17,5.62a15.22,15.22,0,0,0-2.78,10.75c3.84,4,12.77,12.66,13.2,13.15,4.65,5.34,4.44,7.18,6.64,10.68a17.42,17.42,0,0,0,5.92,6.29s-2.26-3.56,1.26-13.49,6.63-11.5,6.34-19a11.31,11.31,0,0,0-.59-3.44,33.58,33.58,0,0,1,1.64-8.83c1.86-5,10.91-9.72,10.91-9.72C335.62,368.62,331.12,370.11,327.24,374.3Z" style="fill:#455a64"></path><path d="M343.14,370.47c-3.55-1.27-7-.88-10.53,2a17.86,17.86,0,0,0-6.07,12.63c-.42,5.3.29,10.38-2.3,15S318,411.57,318,416.34a17.88,17.88,0,0,0,1,6.14,3.5,3.5,0,0,0,1.57,1.8l2.92,1.62Z" style="fill:#37474f"></path><path d="M323.5,425.9c-2.85-.76-4.13-8-1-15.78s5.46-10.35,6-16.48-.59-11.32,3.28-16.64,8.16-6.93,10.81-6.62c2.83.32,4.3,3,4.55,7.34s-.48,8.18-3,14.16c-2.85,6.74-5.32,8.55-6,14.49s-1.23,11.74-4.35,15.47C330.93,425.25,327.36,426.94,323.5,425.9Z" style="fill:#263238"></path><path d="M288.14,373.24a1.8,1.8,0,0,1-.22.7,1.52,1.52,0,0,1-.48.43,7.34,7.34,0,0,0-2.32,2.32,3.3,3.3,0,0,0-.16,3.16,4.48,4.48,0,0,0-2.32,2.84,2.24,2.24,0,0,0,1.94,2.67,3.54,3.54,0,0,0,2.54,4.13,3,3,0,0,1,1.46.5,2.83,2.83,0,0,1,.52,1.14,4.09,4.09,0,0,0,1.35,1.9c.58.44,1.81.56,2.13,1.21a8.63,8.63,0,0,1,.33,1.13,2,2,0,0,0,1.71,1.29c.73,0,1.65,0,2-.69l-1.2-1.23c1-.07,2.51-.31,2.91-1.88a4.43,4.43,0,0,0-.43-2.85,3,3,0,0,0,2.62-2.07,8.68,8.68,0,0,0,.34-3.52,5.32,5.32,0,0,0,3.28-.84,3.63,3.63,0,0,0,1.62-2.88,9.18,9.18,0,0,0,3.56.67,3.1,3.1,0,0,0,2.79-2,3,3,0,0,0,3.84.46l.61,1c1.11-1.43,1.21-3.41-.31-4.39a1.94,1.94,0,0,1-.61-.48,1.64,1.64,0,0,1-.18-.76,5.7,5.7,0,0,0-1-2.91,3.3,3.3,0,0,0-2.64-1.42,4.6,4.6,0,0,0-.78-3.38,2.26,2.26,0,0,0-3.14-.44,4.23,4.23,0,0,0-5.83-1.37,3,3,0,0,1-.72.44,3,3,0,0,1-1.69-.2,4.64,4.64,0,0,0-5.27,2.85c.14-.4-3.52.74-3.85,1A5.6,5.6,0,0,0,288.14,373.24Z" style="fill:#fafafa"></path><path d="M395,362a26.49,26.49,0,0,1,7.23,4c2.45,1.81,3.9,3.61,7.4,5.15,0,0-2.38-4,1.14-14s6.63-11.49,6.34-19a11.31,11.31,0,0,0-.59-3.44,34,34,0,0,1,1.63-8.83c1.87-5,10.78-10.56,10.78-10.56-5.18-.71-8.15.09-12.23,4.67-2.83,3.17-4.47,8.21-5.43,11.31-.73,2.35-3.28,9.16-5,9.75-2.53.84-13.11-7.33-16.38-9.36-4.1-2.24-11.11,1.52-14.43,9.47-3,7.07-1,12.52-.17,13.29C379.52,356.06,390.41,360.13,395,362Z" style="fill:#455a64"></path><path d="M432.79,315.67c-3.55-1-7-.28-10.53,3a19.65,19.65,0,0,0-6.07,13.16c-.41,5.34.29,10.36-2.29,15.22s-6.27,11.95-6.26,16.72a16.8,16.8,0,0,0,1,6,4.23,4.23,0,0,0,1.88,1.93l2.15,1Z" style="fill:#37474f"></path><path d="M413.15,372.81c-2.85-.52-4.13-7.68-1-15.7s5.46-10.82,6-17-.59-11.26,3.28-16.93,8.16-7.64,10.82-7.56c2.82.07,4.29,2.65,4.55,6.94s-.49,8.22-3,14.43c-2.85,7-5.32,9-6,15s-1.23,11.84-4.35,15.85C420.58,371.51,417,373.51,413.15,372.81Z" style="fill:#263238"></path><path d="M367.09,341.52a1.82,1.82,0,0,1,.12.72,1.49,1.49,0,0,1-.24.6,7.31,7.31,0,0,0-1,3.11,3.31,3.31,0,0,0,1.26,2.91,4.43,4.43,0,0,0-.81,3.56,2.24,2.24,0,0,0,2.93,1.53,3.53,3.53,0,0,0,4.11,2.57,2.92,2.92,0,0,1,1.53-.2,2.71,2.71,0,0,1,1,.79A4,4,0,0,0,378,358.2c.71.14,1.87-.3,2.44.13a11.12,11.12,0,0,1,.81.87,2,2,0,0,0,2.09.39c.68-.27,1.51-.82,1.49-1.55l-1.37-.51a2.6,2.6,0,0,0,1.48-3,4.37,4.37,0,0,0-1.65-2.36,3,3,0,0,0,1.42-3,8.76,8.76,0,0,0-1.26-3.3,5.37,5.37,0,0,0,2.56-2.21,3.69,3.69,0,0,0,.17-3.31,9.23,9.23,0,0,0,3.48-1,3.1,3.1,0,0,0,1.61-3,3,3,0,0,0,3.64-1.26l1,.67c.36-1.77-.41-3.66-2.21-3.86a1.87,1.87,0,0,1-.75-.16,1.57,1.57,0,0,1-.51-.6,5.66,5.66,0,0,0-2.18-2.16,3.29,3.29,0,0,0-3-.1,4.67,4.67,0,0,0-2.2-2.68,2.27,2.27,0,0,0-3,1,4.23,4.23,0,0,0-5.83,1.37,2,2,0,0,1-2.06,1.29,4.63,4.63,0,0,0-3.44,4.9c-.05-.42-2.83,2.23-3,2.59A5.62,5.62,0,0,0,367.09,341.52Z" style="fill:#fafafa"></path></g><g id="freepik--Top--inject-13"><path id="freepik--Hair--inject-13" d="M228.45,238.16a13,13,0,0,0-7.65-8.32c-3.51-1.42-8.33-.71-11-3.89-1-1.12-1.35-2.6-2.16-3.82a6.74,6.74,0,0,0-4.93-2.93,7.79,7.79,0,0,0-4.59.78c2.79-3.83,6-2.58,8.79-2.16a7.17,7.17,0,0,0,4.17-.49,4.25,4.25,0,0,0,2.46-3.25,3.06,3.06,0,0,0-2.12-3.27c1.49.75,1.35,3.16.05,4.2a5.11,5.11,0,0,1-4.77.43c-1.58-.53-3-1.44-4.6-2a9.91,9.91,0,0,0-6.77.27c-2.21.92-4.05,2.63-6.35,3.28a7.54,7.54,0,0,1-6.82-1.46L147.18,238a4.29,4.29,0,0,1-2.1,2.45c-1.37.77-3,1.11-4.26,2a6,6,0,0,0-2.53,3.76c-.51,2.4.41,5.14-.93,7.19s-4.17,2.28-6.61,2.41a19.38,19.38,0,0,0-5.87,1,7.59,7.59,0,0,0-4.36,3.86c-.93,2.18-.9,4.85,1.48,6.5a4.61,4.61,0,0,1-.45-5.47,3.94,3.94,0,0,1,1.7-1.28,11.83,11.83,0,0,1,6.2-.42,24.75,24.75,0,0,0,6.24.46,6.15,6.15,0,0,0,5-3.26c-.11.24.58,2,.58,2.51a5.07,5.07,0,0,1-.78,2.69c-1.06,1.82-2.76,3.2-3.53,5.19-1.4,3.64,1.19,7.72,4.46,9.85a16.94,16.94,0,0,0,19.09-.76c1.62-1.25,3.15-3,5.21-3.48,2.23-.56,4.39.84,6.23,1.91,4.53,2.62,10.08,4.31,15,2.5,4.31-1.59,7.5-5.64,12-6.64,2.73-.61,5.57,0,8.36.09s5.94-.58,7.48-2.92c2.34-3.58-.31-9,2.38-12.37,1.25-1.55,3.31-2.14,5.07-3.08A13,13,0,0,0,228.45,238.16Z" style="fill:#455a64"></path><g id="freepik--Arm--inject-13"><path d="M302.17,236c2.84.64,3.19,6,2.8,9.22-.54,4.49-2.45,7.41-5.4,7.24s-4.26-4.81-4-8.49S299.05,235.41,302.17,236Z" style="fill:#BA68C8"></path><path d="M302.17,236c2.84.64,3.19,6,2.8,9.22-.54,4.49-2.45,7.41-5.4,7.24s-4.26-4.81-4-8.49S299.05,235.41,302.17,236Z" style="opacity:0.30000000000000004"></path><path d="M294.69,250.31c-2.22-.09-4.63,0-10.35.05-13.63.07-25.4-1.27-30.24-1.24,0,0-19.95,1.63-26.13,2.56-12.75,1.93-18.6,2.4-18.6,2.4l-18.65-15.73c6.38-2.85,8.13-4.57,19.61-5,12.64-.5,29.22-1.55,44-1.73,3.32,0,13.7,1.77,29.06,3.85,6.68.91,11.61,1.61,15.32,2.16,4.51.67,12.23-.2,19.3,1,3.25,1,8.52,2.75,10.35,3.86.77.48,1.61.79,1.62,2,2,1,2.11,1.78,2.11,2.68,2.72,1.33,3,2.27,2.71,2.75-.71,1.45-3.23.77-5.4,0-1.49-.52-2.86-1-3.2-1.13a44.13,44.13,0,0,0-4.78-.9,39,39,0,0,1,5.67,1.72,15.46,15.46,0,0,1,4.5,2.39c.9,2.56-4.27,1.2-5.85.93-5-.86-10.34-.88-13.81-1.17-1.81-.16-2.18.41-.92,1.11a21.61,21.61,0,0,0,4.14,1.59c2,.52,4.92,1.5,4.5,4.19-.35.24-2.31,0-5.43-.32-5.61-.53-7.77-.93-13.9-6.52C298.41,250,298.08,250.45,294.69,250.31Z" style="fill:#ffa8a7"></path><path d="M332.09,247.12a30.66,30.66,0,0,1-2.94-1.12,19.57,19.57,0,0,0-2.9-1.07c-1-.25-2-.42-3.06-.63-.51-.11-1.23-.24-2.22-.4s-1.66-.41-1.89-.84a6.59,6.59,0,0,0,2.62.67l1.55.19a28.15,28.15,0,0,1,3.12.51,13,13,0,0,1,2.95,1.2C330.25,246.11,331.18,246.6,332.09,247.12Z" style="fill:#f28f8f"></path><path d="M330,244.44c-.86-.32-1.69-.71-2.54-1a22.76,22.76,0,0,0-2.62-.64c-.89-.2-1.79-.4-2.66-.68a7.85,7.85,0,0,1-2.5-1.13,5.22,5.22,0,0,0,1.28.43c.44.12.88.22,1.32.31l2.67.56a13.86,13.86,0,0,1,2.65.78A14.09,14.09,0,0,1,330,244.44Z" style="fill:#f28f8f"></path><path d="M325.27,248.53a5.8,5.8,0,0,0-1.08-.5,25.34,25.34,0,0,0-4.38-.79,5,5,0,0,0-2,.54l1.16-.13a11.38,11.38,0,0,1,2.48.2c1.15.13,2.81.45,3.85.68Z" style="fill:#f28f8f"></path><path d="M321.42,247.85l.7.16C321.65,247.89,321.42,247.85,321.42,247.85Z" style="fill:#f28f8f"></path><path d="M188.28,237.75c8.45-4,11.29-4.86,22-5.48s35.41-1.22,40.28-1.4a89.49,89.49,0,0,1,14.34.8l37.3,4.35c-1.94-.34-5.48,3.5-5.69,8.13-.25,5.51,1.23,8.22,3.09,8.33L254.18,250l-44.54,4.79Z" style="fill:#BA68C8"></path><path d="M188.28,237.75c8.45-4,11.29-4.86,22-5.48s35.41-1.22,40.28-1.4a89.49,89.49,0,0,1,14.34.8l37.3,4.35c-1.94-.34-5.48,3.5-5.69,8.13-.25,5.51,1.23,8.22,3.09,8.33L254.18,250l-44.54,4.79Z" style="opacity:0.15"></path></g><g id="freepik--Chest--inject-13"><path d="M197.24,300c-6.2-7.93-23.59-14-28.42-17.61s-12.09-9-15-16.37,4.76-14.56,4.76-14.56l5.76-3.47c14.2-7.55,24-10.2,24-10.2s18.78-2.5,29.05,1c9.76,3.34,10,15.09,10,15.09a60.94,60.94,0,0,1,12.49,8.56c4.1,1.51,15.24,5.86,18,7.69,3,1.94,1.92,3.28,1.92,3.28l-2.7-.93s-9.13-.75-22,5.3c-14,6.58-28.23,21.48-27.93,32.61l1.48,2.43s-1.7,1-3.28-1.06C202.41,307.89,199.36,302.66,197.24,300Z" style="fill:#BA68C8"></path><path d="M257.06,272.45a44.57,44.57,0,0,0-25.56,6.78c-13.48,8.29-24.65,20-24.35,31.13A24.74,24.74,0,0,0,211,316.1c2.62-13.48,11.84-23.53,21.9-30.19,13.91-9.2,26.08-11.34,34.87-9.7C267.8,276.21,259.69,272.59,257.06,272.45Z" style="fill:#BA68C8"></path><path d="M257.06,272.45a44.57,44.57,0,0,0-25.56,6.78c-13.48,8.29-24.65,20-24.35,31.13A24.74,24.74,0,0,0,211,316.1c2.62-13.48,11.84-23.53,21.9-30.19,13.91-9.2,26.08-11.34,34.87-9.7C267.8,276.21,259.69,272.59,257.06,272.45Z" style="opacity:0.2"></path></g><g id="freepik--arm--inject-13"><path d="M134.1,329.59c-.5,4.81,4,7.16,9,8.89s9.58.82,9.94-2.15-1.62-7.1-8.13-9.48S134.46,325.54,134.1,329.59Z" style="fill:#BA68C8"></path><path d="M134.1,329.59c-.5,4.81,4,7.16,9,8.89s9.58.82,9.94-2.15-1.62-7.1-8.13-9.48S134.46,325.54,134.1,329.59Z" style="opacity:0.30000000000000004"></path><path d="M151.46,330.1c.64-4.94.25-2.27,1-7,2.16-13.75,2-11.88,3.33-18.82,0,0,2.83-6.75,5.18-12.55,4.84-11.95,7.51-18,7.51-18l-9.72-22.19c-9.58,4.43-11.38,6.34-13.77,15.88-3.08,12.26-2.13,8.8-6.76,30.28-.7,3.25-.75-1-1.29,16.43-.35,11.56-.07,13.5-.94,16.67-1,3.78-2.47,2.85-5.69,14.24-2.15,7.6-2.54,9.4-3.29,12.81-.62,2.74,2.09,4,2.89,1.72,1.24-3.55,2.23-6.41,3.46-9.88.38-1.07.86-1.08.68,0-.71,4.18-1.65,7.69-2.58,14.53-.38,2.86,2.34,3.44,2.94,1.25,1-3.56,1.39-5.44,1.78-7.16.72-3.21,1-5,1.34-6.26.37-1.58,1.27-.9,1.12.08-.38,2.43-1.54,10.1-1.9,14.68-.25,3.15,3.25,3.9,3.8.69.89-5.21,1.68-10.89,2.3-14.91.3-2,1-1.31,1-.13,0,.63-.34,8.44-.52,11.49-.23,4.06,3.28,3.94,3.69.74.72-5.6,1.27-13.23,1.66-16.69.31-2.67,2,1.82,2.81,4.27a4.52,4.52,0,0,0,5.61,3.16c.55-.41-.24-1.68-1.3-4.51-1.78-4.82-1.11-8.41-3.75-13.5C150.85,335.13,151,333.47,151.46,330.1Z" style="fill:#ffa8a7"></path><path d="M158.89,251.22c-6.62,2.91-11.26,4.25-14.2,14.13s-6.37,27-7.36,31.34a106.71,106.71,0,0,0-1.78,15.67c-.41,6-1.45,17.23-1.45,17.23s1.9-3.94,10.73-.69c7.14,2.63,8.19,7.43,8.19,7.43s3.17-27.43,4.09-31.18,10.34-26.32,11.28-28.78C169.91,272.36,170.45,253.53,158.89,251.22Z" style="fill:#BA68C8"></path><path d="M158.89,251.22c-6.62,2.91-11.26,4.25-14.2,14.13s-6.37,27-7.36,31.34a106.71,106.71,0,0,0-1.78,15.67c-.41,6-1.45,17.23-1.45,17.23s1.9-3.94,10.73-.69c7.14,2.63,8.19,7.43,8.19,7.43s3.17-27.43,4.09-31.18,10.34-26.32,11.28-28.78C169.91,272.36,170.45,253.53,158.89,251.22Z" style="opacity:0.15"></path></g><g id="freepik--Head--inject-13"><path d="M131.74,218.68c-1.8-7.7-1-16.34,7.83-23.17,8.18-6.32,26.6-7.28,32.57,1.37,2.4.66,9.4,4.49,7.32,12.44,0,0-1.08,3.09-.72,4.55.49,2,1.14,3.94,1.72,5.91l1.95,6.69-21.59,15.26C156.58,237.2,136.22,237.73,131.74,218.68Z" style="fill:#455a64"></path><path d="M166.55,248.39,155.5,235.53s-.36,3.54-5.23,3.27c-4.36-.24-8.74-4.44-7.73-9.05.58-2.61,3.92-5.32,8.07-2.82,0,0,5.1-3.68,8.79-13,3.76-9.5,2.53-14.71,6.43-17.93,3,.23,7.77,3.42,15.19,15.28,5.49,8.77,4.3,15.44,3.29,18.22-.83,2.26-2.37,3.41-5.58,5l3.83,5.53C193.39,242.61,180.33,252.2,166.55,248.39Z" style="fill:#ffa8a7"></path><path d="M174.78,204.34l-4.73-.13a2.32,2.32,0,0,1,2.38-2.31A2.43,2.43,0,0,1,174.78,204.34Z" style="fill:#263238"></path><path d="M168.27,226.17l5.9-1.9a3,3,0,0,1-1.94,3.89A3.19,3.19,0,0,1,168.27,226.17Z" style="fill:#b16668"></path><path d="M171,226.4a3.24,3.24,0,0,0-1.72,1.15,3.17,3.17,0,0,0,3,.61A3,3,0,0,0,173.8,227,3.26,3.26,0,0,0,171,226.4Z" style="fill:#f28f8f"></path><path d="M175.38,210.19c.28,1-.83-.08-1.84.2s-1.53,1.82-1.81.79a1.89,1.89,0,0,1,3.65-1Z" style="fill:#263238"></path><path d="M163.45,216.58c.75.76-.76.34-1.51,1.07s-.45,2.34-1.2,1.58a1.8,1.8,0,0,1,.13-2.6A1.78,1.78,0,0,1,163.45,216.58Z" style="fill:#263238"></path><polygon points="166.55 212.04 171.88 222.17 176.9 217.91 166.55 212.04" style="fill:#f28f8f"></polygon><path d="M163.55,222.75c.83,1.11.28,2.92-1.22,4.05s-3.4,1.13-4.23,0-.28-2.92,1.22-4S162.72,221.64,163.55,222.75Z" style="fill:#f28f8f"></path><path d="M183.69,211.27c.57,1.26-.35,2.92-2.06,3.7s-3.57.38-4.14-.88.35-2.92,2.06-3.7S183.12,210,183.69,211.27Z" style="fill:#f28f8f"></path><path d="M178.73,234.43c-4,1.93-14,5.25-17.14,3.08a9.08,9.08,0,0,0,5.1,2c3.51.43,13.19-3.44,13.19-3.44Z" style="fill:#f28f8f"></path><g id="freepik--Hat--inject-13"><path d="M117.61,203.62a3.17,3.17,0,0,1,.82-2.25c.2-.21,1.39-1.06,2.2-.79a2.8,2.8,0,0,1,.05-3.61,3.34,3.34,0,0,1,2.55-1.19,4.21,4.21,0,0,1,2.08.68,2.64,2.64,0,0,1,2.65-2.87,3.18,3.18,0,0,1,2.89,2.89,3,3,0,0,1,5.38,2c-.08,1.53-1.54,2.56-2.85,3.35a3.23,3.23,0,0,1,1.9,4.09,4.65,4.65,0,0,1-3.86,2.85,2.1,2.1,0,0,1,.55,2.63,4.09,4.09,0,0,1-2.21,1.83,4,4,0,0,1-2.87.26,2,2,0,0,1-1.38-2.29,3.33,3.33,0,1,1-4.16-5A3.22,3.22,0,0,1,117.61,203.62Z" style="fill:#BA68C8"></path><path d="M133.41,225.92a44.14,44.14,0,0,0,13.1,12.51c-4.53-20.67,9.63-35.88,24.94-42.38-8.91-9.52-21.53-9.23-31-2.83C128.71,201.09,125.54,214.21,133.41,225.92Z" style="fill:#BA68C8"></path><path d="M133.41,225.92a44.14,44.14,0,0,0,13.1,12.51c-4.53-20.67,9.63-35.88,24.94-42.38-8.91-9.52-21.53-9.23-31-2.83C128.71,201.09,125.54,214.21,133.41,225.92Z" style="fill:#fff;opacity:0.4"></path><path d="M134.3,223.72c.94-.35,2,.05,2.9-.3q-1.14-1.8-2.13-3.69a4.66,4.66,0,0,1-.78-2.88c.42-2.35,3.2-2.4,5.07-2.22-.05-2-2-3.76-1.26-5.85a2.12,2.12,0,0,1,1.9-1.35,6.31,6.31,0,0,1,1.56.11c.63.1,1.79.51,1.94-.42.27-1.72-2.44-4.62-.35-5.94a6.49,6.49,0,0,1,3.36-.9,8.11,8.11,0,0,1,1.77.17l.84.21c.16.05.24.13.29-.06a.75.75,0,0,0-.07-.36c-.23-.71-.47-1.43-.71-2.14-.08-.23-.15-.45-.21-.68a2.55,2.55,0,0,1,0-1.68,2.29,2.29,0,0,1,.94-1.16,5.08,5.08,0,0,1,3-.61c1.24.06,2.47.18,3.71.27.1,0,.56.1.62,0a.16.16,0,0,0,0-.12c-.18-1.09-.9-2.08-1-3.2a2.31,2.31,0,0,1,.3-1.26,2.88,2.88,0,0,1,.4-.52c.09-.08.38-.4.5-.38.27,0,.53,0,.8.08a3.62,3.62,0,0,0-.77.42,1.64,1.64,0,0,0-.8,1.72c.33,1,.72,2,1.13,3a1.18,1.18,0,0,1,.12.49c0,.46-.5.36-.82.34l-1.34-.11c-.89-.07-1.79-.14-2.68-.18-1.26-.07-2.81,0-3.59,1.18a2.16,2.16,0,0,0-.1,1.95c.3.88.69,1.74,1,2.6a1.35,1.35,0,0,1,.12,1,.26.26,0,0,1-.12.15.34.34,0,0,1-.2,0,10,10,0,0,0-3.3-.49,5.82,5.82,0,0,0-3.24,1c-.95.86.19,2.83.48,3.83.18.61.58,1.88.07,2.43s-1.85,0-2.44,0c-1.06-.14-2.34-.13-2.79,1s.2,2.32.66,3.32a5.64,5.64,0,0,1,.63,2.57c0,.09-.06.2-.16.19-1.68-.18-4.84-.27-5,2.13-.06,1.12.78,2.31,1.29,3.24s1.13,2,1.74,2.9a.28.28,0,0,1-.06.4,4.26,4.26,0,0,1-2.21.27,1.87,1.87,0,0,0-2,1.8c-.13-.19-.23-.39-.35-.58A2.1,2.1,0,0,1,134.3,223.72Z" style="fill:#fafafa"></path><path d="M139.58,198.47c-3.65,4.89-6.61,10.48-7.5,16.58a25.33,25.33,0,0,0-.24,5,38.85,38.85,0,0,0,.61,4.29c-.28-.47-.53-.94-.77-1.41a22,22,0,0,1-.3-2.39,26.1,26.1,0,0,1,.05-4.42,30.36,30.36,0,0,1,2.25-8.73,43.19,43.19,0,0,1,4.67-8.27,47.45,47.45,0,0,1,6.76-7.8c.46-.41.93-.81,1.4-1.19.58-.21,1.16-.4,1.75-.57A43.14,43.14,0,0,0,139.58,198.47Z" style="fill:#fafafa"></path><path d="M172.14,196.88c.15-.43.26-.62-1-2.23s-2.08-3.09-4-3-16.11,6.93-21.95,17.52c-7.7,14-5.48,23.7-4.5,25.89s5.1,3.86,6,3.68c.24-.05.46-.41.48-.77a2.17,2.17,0,0,1-.79-1.06c-.43-1-.49-2.82-.49-6,0-5,0-8,5.29-17.56,4.36-7.87,12.94-13.92,16.53-15.38C171.07,196.66,172.14,196.88,172.14,196.88Z" style="fill:#BA68C8"></path></g></g></g></g></g></svg>