<?xml version="1.0" encoding="UTF-8" standalone="no"?>
<!-- Created with Inkscape (http://www.inkscape.org/) -->

<svg
   version="1.1"
   id="svg2"
   width="666.66669"
   height="496.81332"
   viewBox="0 0 666.66669 496.81332"
   sodipodi:docname="6192550_3129544.eps"
   xmlns:inkscape="http://www.inkscape.org/namespaces/inkscape"
   xmlns:sodipodi="http://sodipodi.sourceforge.net/DTD/sodipodi-0.dtd"
   xmlns="http://www.w3.org/2000/svg"
   xmlns:svg="http://www.w3.org/2000/svg">
  <defs
     id="defs6" />
  <sodipodi:namedview
     id="namedview4"
     pagecolor="#ffffff"
     bordercolor="#000000"
     borderopacity="0.25"
     inkscape:showpageshadow="2"
     inkscape:pageopacity="0.0"
     inkscape:pagecheckerboard="0"
     inkscape:deskcolor="#d1d1d1" />
  <g
     id="g8"
     inkscape:groupmode="layer"
     inkscape:label="ink_ext_XXXXXX"
     transform="matrix(1.3333333,0,0,-1.3333333,0,496.81333)">
    <g
       id="g10"
       transform="scale(0.1)">
      <path
         d="m 0,449.129 h 5000 v 2.5 H 0 Z"
         style="fill:#e7e8e5;fill-opacity:1;fill-rule:nonzero;stroke:none"
         id="path12" />
      <path
         d="M 736.668,353.898 H 524.59 v 2.5 h 212.078 v -2.5"
         style="fill:#e7e8e5;fill-opacity:1;fill-rule:nonzero;stroke:none"
         id="path14" />
      <path
         d="M 2561.11,381.031 H 1711.4 v 2.5 h 849.71 v -2.5"
         style="fill:#e7e8e5;fill-opacity:1;fill-rule:nonzero;stroke:none"
         id="path16" />
      <path
         d="M 1057.74,261.039 H 676.668 v 2.5 h 381.072 v -2.5"
         style="fill:#e7e8e5;fill-opacity:1;fill-rule:nonzero;stroke:none"
         id="path18" />
      <path
         d="m 4499.01,277.84 h -431.93 v 2.5 h 431.93 v -2.5"
         style="fill:#e7e8e5;fill-opacity:1;fill-rule:nonzero;stroke:none"
         id="path20" />
      <path
         d="m 4034.44,277.84 h -119.73 v 2.5 h 119.73 v -2.5"
         style="fill:#e7e8e5;fill-opacity:1;fill-rule:nonzero;stroke:none"
         id="path22" />
      <path
         d="m 3708.89,320.059 h -230 v 2.5 h 230 v -2.5"
         style="fill:#e7e8e5;fill-opacity:1;fill-rule:nonzero;stroke:none"
         id="path24" />
      <path
         d="m 3363.33,320.059 h -484.44 v 2.5 h 484.44 v -2.5"
         style="fill:#e7e8e5;fill-opacity:1;fill-rule:nonzero;stroke:none"
         id="path26" />
      <path
         d="m 439.152,3723.59 c -30.101,0 -54.582,-24.48 -54.582,-54.57 V 954.699 c 0,-30.097 24.481,-54.578 54.582,-54.578 H 2370.14 c 30.09,0 54.57,24.481 54.57,54.578 V 3669.02 c 0,30.09 -24.48,54.57 -54.57,54.57 H 439.152 M 2370.14,897.621 H 439.152 c -31.476,0 -57.082,25.598 -57.082,57.078 V 3669.02 c 0,31.46 25.606,57.07 57.082,57.07 H 2370.14 c 31.46,0 57.07,-25.61 57.07,-57.07 V 954.699 c 0,-31.48 -25.61,-57.078 -57.07,-57.078"
         style="fill:#e7e8e5;fill-opacity:1;fill-rule:nonzero;stroke:none"
         id="path28" />
      <path
         d="m 2602.12,3723.59 c -30.09,0 -54.57,-24.48 -54.57,-54.57 V 954.699 c 0,-30.097 24.48,-54.578 54.57,-54.578 H 4533.1 c 30.1,0 54.59,24.481 54.59,54.578 V 3669.02 c 0,30.09 -24.49,54.57 -54.59,54.57 H 2602.12 M 4533.1,897.621 H 2602.12 c -31.47,0 -57.07,25.598 -57.07,57.078 V 3669.02 c 0,31.46 25.6,57.07 57.07,57.07 H 4533.1 c 31.48,0 57.09,-25.61 57.09,-57.07 V 954.699 c 0,-31.48 -25.61,-57.078 -57.09,-57.078"
         style="fill:#e7e8e5;fill-opacity:1;fill-rule:nonzero;stroke:none"
         id="path30" />
      <path
         d="M 2963.2,839.77 C 2757.99,962.801 2592.46,1118.85 2342.98,941.379 2240,981.172 2077.38,1082.47 2001.37,1127.84 1590.03,1373.36 1351.29,1175.1 1033.95,984.832 716.609,794.57 349.676,451.629 349.676,451.629 h 1202.144 2027.76 73.47 c 0,0 -483.4,264.359 -689.85,388.141"
         style="fill:#e7e8e5;fill-opacity:1;fill-rule:nonzero;stroke:none"
         id="path32" />
      <path
         d="m 2094.49,731.23 c 205.22,88.629 300.2,175.5 549.67,47.661 112.27,39.507 210.94,79.039 282.77,116.32 388.68,201.709 779.47,77.57 1096.81,-59.481 317.34,-137.058 684.28,-384.101 684.28,-384.101 H 3505.88 1478.11 1404.64 c 0,0 483.4,190.441 689.85,279.601"
         style="fill:#f3f2f1;fill-opacity:1;fill-rule:nonzero;stroke:none"
         id="path34" />
      <path
         d="m 1225.9,2403.77 c 122.03,0 190.41,136.08 129.7,136.08 -60.7,0 -169.93,-73.36 -230.64,-73.36 -60.69,0 82.31,114.63 21.61,114.63 -60.68,0 -203.683,-114.63 -264.359,-114.63 -60.695,0 44.273,71.33 -16.422,71.33 -53.601,0 -167.461,-73.86 -302.844,-117.49 -11.906,-3.84 -13.113,-16.56 -1.582,-16.56 H 1225.9"
         style="fill:#fafaf9;fill-opacity:1;fill-rule:nonzero;stroke:none"
         id="path36" />
      <path
         d="m 4087.58,1727.28 c 152.98,0 185.77,170.6 109.66,170.6 -76.1,0 -160.1,-91.98 -236.2,-91.98 -76.09,0 47.55,143.71 -28.55,143.71 -114.73,0 -217.3,-143.71 -275.78,-143.71 -76.09,0 -12.23,65.7 -88.32,65.7 -67.2,0 -142.2,-68.87 -311.93,-123.57 -14.93,-4.81 -16.44,-20.75 -1.98,-20.75 h 833.1"
         style="fill:#fafaf9;fill-opacity:1;fill-rule:nonzero;stroke:none"
         id="path38" />
      <path
         d="m 1942.88,1481.75 c 76.49,0 92.88,85.3 54.83,85.3 -38.05,0 -80.05,-45.99 -118.1,-45.99 -38.05,0 23.77,71.86 -14.28,71.86 -57.37,0 -108.65,-71.86 -137.89,-71.86 -38.05,0 -6.11,32.85 -44.16,32.85 -33.6,0 -71.1,-34.44 -155.97,-61.79 -7.46,-2.4 -8.22,-10.37 -0.99,-10.37 h 416.56"
         style="fill:#fafaf9;fill-opacity:1;fill-rule:nonzero;stroke:none"
         id="path40" />
      <path
         d="m 1861.23,578.828 -27.91,-96.656 h 55.81 z"
         style="fill:#e7e8e5;fill-opacity:1;fill-rule:nonzero;stroke:none"
         id="path42" />
      <path
         d="m 2783.33,682.281 -22.23,-77.019 h 44.47 z"
         style="fill:#e7e8e5;fill-opacity:1;fill-rule:nonzero;stroke:none"
         id="path44" />
      <path
         d="m 3721.63,1012.07 -32.81,-113.672 h 65.62 z"
         style="fill:#e7e8e5;fill-opacity:1;fill-rule:nonzero;stroke:none"
         id="path46" />
      <path
         d="m 4316.08,726.398 -32.81,-113.656 h 65.62 z"
         style="fill:#e7e8e5;fill-opacity:1;fill-rule:nonzero;stroke:none"
         id="path48" />
      <path
         d="m 3781.63,975.398 -32.81,-113.66 h 65.62 z"
         style="fill:#e7e8e5;fill-opacity:1;fill-rule:nonzero;stroke:none"
         id="path50" />
      <path
         d="m 3194.51,778.949 -27.91,-96.668 h 55.81 z"
         style="fill:#e7e8e5;fill-opacity:1;fill-rule:nonzero;stroke:none"
         id="path52" />
      <path
         d="m 3264.43,740.422 -22.23,-77.031 h 44.47 z"
         style="fill:#e7e8e5;fill-opacity:1;fill-rule:nonzero;stroke:none"
         id="path54" />
      <path
         d="m 3434.44,1013.91 -22.23,-77.019 h 44.47 z"
         style="fill:#e7e8e5;fill-opacity:1;fill-rule:nonzero;stroke:none"
         id="path56" />
      <path
         d="m 3048.3,990.949 -32.81,-113.648 h 65.62 z"
         style="fill:#e7e8e5;fill-opacity:1;fill-rule:nonzero;stroke:none"
         id="path58" />
      <path
         d="m 1361.91,1127.2 22.49,-77.92 h -44.98 z"
         style="fill:#f3f2f1;fill-opacity:1;fill-rule:nonzero;stroke:none"
         id="path60" />
      <path
         d="m 877.711,838.031 22.492,-77.929 h -44.988 z"
         style="fill:#f3f2f1;fill-opacity:1;fill-rule:nonzero;stroke:none"
         id="path62" />
      <path
         d="m 1244.11,1008.73 22.49,-77.921 h -44.99 z"
         style="fill:#f3f2f1;fill-opacity:1;fill-rule:nonzero;stroke:none"
         id="path64" />
      <path
         d="m 1978.17,878.699 19.13,-66.269 h -38.26 z"
         style="fill:#f3f2f1;fill-opacity:1;fill-rule:nonzero;stroke:none"
         id="path66" />
      <path
         d="m 1598.69,847.629 15.24,-52.797 h -30.49 z"
         style="fill:#f3f2f1;fill-opacity:1;fill-rule:nonzero;stroke:none"
         id="path68" />
      <path
         d="m 1482.13,1035.13 15.24,-52.798 h -30.48 z"
         style="fill:#f3f2f1;fill-opacity:1;fill-rule:nonzero;stroke:none"
         id="path70" />
      <path
         d="m 1746.86,1019.4 22.49,-77.931 h -44.98 z"
         style="fill:#f3f2f1;fill-opacity:1;fill-rule:nonzero;stroke:none"
         id="path72" />
      <path
         d="M 4438.89,113.238 C 4438.89,50.6992 3570.82,0 2500,0 1429.18,0 561.109,50.6992 561.109,113.238 c 0,62.532 868.071,113.231 1938.891,113.231 1070.82,0 1938.89,-50.699 1938.89,-113.231"
         style="fill:#f3f2f1;fill-opacity:1;fill-rule:nonzero;stroke:none"
         id="path74" />
      <path
         d="m 3707.91,3154.31 c 0,-137.58 -111.53,-249.1 -249.1,-249.1 -137.58,0 -249.11,111.52 -249.11,249.1 0,137.58 111.53,249.1 249.11,249.1 137.57,0 249.1,-111.52 249.1,-249.1"
         style="fill:#406fbf;fill-opacity:1;fill-rule:nonzero;stroke:none"
         id="path76" />
      <path
         d="m 3820.66,3319.6 c -22.98,50.23 -55.6,94.44 -96.95,131.38 l 6.66,7.46 c 42.39,-37.87 75.83,-83.19 99.39,-134.68 l -9.1,-4.16"
         style="fill:#b8d2ef;fill-opacity:1;fill-rule:nonzero;stroke:none"
         id="path78" />
      <path
         d="m 3125.79,3371.83 -8.37,5.48 c 75.71,115.67 203.33,184.72 341.39,184.72 v -10 c -134.67,0 -259.17,-67.36 -333.02,-180.2"
         style="fill:#b8d2ef;fill-opacity:1;fill-rule:nonzero;stroke:none"
         id="path80" />
      <path
         d="m 3209.3,2831.82 c -49.73,38.54 -90.46,88.75 -117.76,145.22 l 9,4.35 c 26.64,-55.09 66.36,-104.07 114.88,-141.67 l -6.12,-7.9"
         style="fill:#b8d2ef;fill-opacity:1;fill-rule:nonzero;stroke:none"
         id="path82" />
      <path
         d="m 3643.79,2790.87 -4.54,8.91 c 64.34,32.81 118.64,82.58 157.01,143.92 l 8.47,-5.3 c -39.32,-62.88 -94.98,-113.89 -160.94,-147.53"
         style="fill:#b8d2ef;fill-opacity:1;fill-rule:nonzero;stroke:none"
         id="path84" />
      <path
         d="m 3145.32,3154.31 h -10 c 0,178.37 145.11,323.49 323.49,323.49 v -10 c -172.86,0 -313.49,-140.63 -313.49,-313.49"
         style="fill:#7da6dd;fill-opacity:1;fill-rule:nonzero;stroke:none"
         id="path86" />
      <path
         d="m 3458.81,2830.82 v 10 c 172.85,0 313.48,140.63 313.48,313.49 h 10 c 0,-178.37 -145.11,-323.49 -323.48,-323.49"
         style="fill:#7da6dd;fill-opacity:1;fill-rule:nonzero;stroke:none"
         id="path88" />
      <path
         d="m 1821.96,3077.83 c 317.4,0 365.41,249.82 160.58,249.82 -111.44,0 -234.45,-134.68 -345.89,-134.68 -111.44,0 69.62,210.44 -41.82,210.44 -144.92,0 -299.58,-210.44 -403.85,-210.44 -111.43,0 -17.91,96.2 -129.34,96.2 -98.406,0 -208.245,-100.85 -456.796,-180.95 -21.86,-7.04 -24.074,-30.39 -2.906,-30.39 H 1821.96"
         style="fill:#406fbf;fill-opacity:1;fill-rule:nonzero;stroke:none"
         id="path90" />
      <path
         d="M 1821.96,3077.83 H 601.938 c -9.965,0 -14.747,5.17 -14.743,11.38 0.012,6.99 6.078,15.28 17.649,19.01 248.551,80.1 358.39,180.95 456.796,180.95 111.43,0 17.91,-96.2 129.34,-96.2 104.27,0 258.93,210.44 403.85,210.44 28.52,0 37.88,-13.77 37.9,-34.28 0.02,-39.13 -34,-102.75 -33.97,-141.88 0.01,-20.5 9.38,-34.28 37.89,-34.28 111.44,0 234.45,134.68 345.89,134.68 81.92,0 123.39,-39.95 123.37,-87.9 -0.02,-71.96 -93.48,-161.92 -283.95,-161.92"
         style="fill:#b8d2ef;fill-opacity:1;fill-rule:nonzero;stroke:none"
         id="path92" />
      <path
         d="m 4064.72,2344.56 c 167.34,0 261.13,186.62 177.87,186.62 -83.25,0 -233.05,-100.61 -316.29,-100.61 -83.25,0 112.87,157.2 29.62,157.2 -83.21,0 -279.32,-157.2 -362.54,-157.2 -83.24,0 60.72,97.82 -22.52,97.82 -73.51,0 -229.65,-101.29 -415.32,-161.12 -16.33,-5.27 -17.98,-22.71 -2.17,-22.71 h 911.35"
         style="fill:#406fbf;fill-opacity:1;fill-rule:nonzero;stroke:none"
         id="path94" />
      <path
         d="m 4064.72,2344.56 h -911.35 c -7.44,0 -11.01,3.87 -11.01,8.51 0.01,5.21 4.54,11.41 13.18,14.2 185.67,59.83 341.81,161.12 415.32,161.12 20.12,0 26.97,-5.72 26.95,-14.38 -0.02,-18.52 -31.36,-50.53 -31.38,-69.06 -0.01,-8.66 6.83,-14.38 26.95,-14.38 83.22,0 279.33,157.2 362.54,157.2 15.16,0 21.06,-5.21 21.06,-13.74 0.01,-29.77 -71.76,-99.94 -71.74,-129.71 0,-8.53 5.89,-13.75 21.06,-13.75 83.24,0 233.04,100.61 316.29,100.61 21.14,0 30.87,-12.03 30.87,-29.98 0.02,-52.76 -83.89,-156.64 -208.74,-156.64"
         style="fill:#b8d2ef;fill-opacity:1;fill-rule:nonzero;stroke:none"
         id="path96" />
      <path
         d="m 1745.75,2019.92 c 98.93,0 120.14,110.33 70.92,110.33 -49.22,0 -103.55,-59.48 -152.77,-59.48 -49.21,0 30.75,92.95 -18.46,92.95 -74.21,0 -140.54,-92.95 -178.37,-92.95 -49.21,0 -7.9,42.49 -57.12,42.49 -43.46,0 -91.97,-44.54 -201.74,-79.92 -9.66,-3.11 -10.64,-13.42 -1.29,-13.42 h 538.83"
         style="fill:#406fbf;fill-opacity:1;fill-rule:nonzero;stroke:none"
         id="path98" />
      <path
         d="m 1745.75,2019.92 h -538.83 c -4.38,0 -6.49,2.26 -6.51,4.99 -0.01,3.09 2.67,6.78 7.8,8.43 109.77,35.38 158.28,79.92 201.74,79.92 49.22,0 7.91,-42.49 57.12,-42.49 37.83,0 104.16,92.95 178.37,92.95 12.59,0 16.72,-6.09 16.73,-15.14 0.01,-17.28 -15.01,-45.39 -15,-62.67 0.01,-9.05 4.14,-15.14 16.73,-15.14 49.22,0 103.55,59.48 152.77,59.48 16.92,0 25.52,-13.03 25.5,-30.15 -0.04,-32.66 -31.5,-80.18 -96.42,-80.18"
         style="fill:#b8d2ef;fill-opacity:1;fill-rule:nonzero;stroke:none"
         id="path100" />
      <path
         d="m 2645.25,2442.13 12.58,3.69 13.47,4.09 c 9,2.84 17.95,5.97 26.83,9.24 17.83,6.38 35.26,13.6 52.1,21.45 16.67,8.07 33.27,16.31 48.09,26.19 3.93,2.29 7.28,5 10.99,7.43 3.69,2.47 7.29,5 10.53,7.75 l 5.07,4.03 c 1.52,1.09 4.42,3.78 2.23,1.32 -2.02,-2.67 -2.23,-4.78 -1.94,-4.59 0.64,0.54 1.27,7.27 0.13,14.44 -1.07,7.4 -3.09,15.77 -5.74,24.32 -5.02,17.27 -12.37,35.14 -20.08,53.04 -15.82,35.63 -34.09,71.97 -52.76,107.09 l 36.78,26.08 c 27.87,-32.09 52.95,-65.24 75.44,-101.84 11.31,-18.27 21.68,-37.34 30.89,-58.41 4.45,-10.61 8.55,-21.79 11.75,-34.39 2.87,-12.78 5.98,-26.79 2.76,-46.43 -1.8,-9.77 -5.96,-21.64 -14.57,-32.17 -5.52,-6.35 -6.6,-6.89 -8.88,-9.22 l -6.4,-6.15 c -4.23,-4.23 -8.65,-8.02 -13.14,-11.7 -4.48,-3.67 -8.89,-7.65 -13.59,-10.87 -18.39,-14 -37.65,-25.68 -57.37,-36.15 -19.68,-10.51 -39.86,-19.47 -60.38,-27.26 -10.3,-3.77 -20.66,-7.36 -31.16,-10.64 -10.72,-3.42 -20.57,-6.19 -32.93,-8.99 l -20.7,88.65"
         style="fill:#f9a8b3;fill-opacity:1;fill-rule:nonzero;stroke:none"
         id="path102" />
      <path
         d="m 2761.64,2711.96 -66.65,35.25 71.24,52.05 c 0,0 36.48,-35.86 27.28,-83.78 l -31.87,-3.52"
         style="fill:#f9a8b3;fill-opacity:1;fill-rule:nonzero;stroke:none"
         id="path104" />
      <path
         d="m 2665.39,2815.29 60.11,28.78 40.73,-44.81 -71.24,-52.05 -29.6,68.08"
         style="fill:#f9a8b3;fill-opacity:1;fill-rule:nonzero;stroke:none"
         id="path106" />
      <path
         d="m 2314.81,182.641 82.96,-7.969 50.58,194.117 -82.96,7.973 -50.58,-194.121"
         style="fill:#f9a8b3;fill-opacity:1;fill-rule:nonzero;stroke:none"
         id="path108" />
      <path
         d="m 1913.04,373.648 72.88,-41.796 95.1,171.949 -72.89,41.808 -95.09,-171.961"
         style="fill:#f9a8b3;fill-opacity:1;fill-rule:nonzero;stroke:none"
         id="path110" />
      <path
         d="m 1996.67,345.391 -63.94,70.058 c -2.33,2.539 -5.99,3 -8.81,1.082 l -62.71,-42.609 c -6.51,-4.422 -7.43,-14.32 -1.97,-20.121 22.72,-24.039 34.9,-34.5 63.02,-65.313 17.3,-18.949 52.78,-63.418 76.67,-89.59 23.37,-25.597 51.05,-3.949 43.44,9.09 -34.09,58.461 -38.82,94.391 -40.02,123.481 -0.22,5.242 -2.27,10.191 -5.68,13.922"
         style="fill:#17282f;fill-opacity:1;fill-rule:nonzero;stroke:none"
         id="path112" />
      <path
         d="m 2414.88,199.871 h -100.16 c -3.64,0 -6.93,-2.531 -7.91,-6.082 l -21.78,-79.25 c -2.26,-8.219 3.79,-15.7773 12.22,-15.8476 35.29,-0.3203 52.03,-0.1719 96.07,-0.1719 27.1,0 97.21,0 134.63,0 36.6,0 44.25,37.0005 29.11,40.3515 -67.9,15.027 -107.04,35.75 -128,55.527 -3.77,3.563 -8.85,5.473 -14.18,5.473"
         style="fill:#17282f;fill-opacity:1;fill-rule:nonzero;stroke:none"
         id="path114" />
      <path
         d="m 2337.23,268.68 h -0.04 l 8.31,31.89 h 0.04 l -8.31,-31.89"
         style="fill:#c3c5c2;fill-opacity:1;fill-rule:nonzero;stroke:none"
         id="path116" />
      <path
         d="m 2422.27,268.68 h -85.04 l 8.31,31.89 84.47,-2.172 -7.74,-29.718"
         style="fill:#d8898c;fill-opacity:1;fill-rule:nonzero;stroke:none"
         id="path118" />
      <path
         d="m 1959.09,456.93 -0.05,0.031 15.06,27.199 0.04,-0.019 -15.05,-27.211"
         style="fill:#babcba;fill-opacity:1;fill-rule:nonzero;stroke:none"
         id="path120" />
      <path
         d="m 2031.95,415.129 -72.86,41.801 15.05,27.211 70.98,-45.211 -13.17,-23.801"
         style="fill:#d8898c;fill-opacity:1;fill-rule:nonzero;stroke:none"
         id="path122" />
      <path
         d="m 2566.2,2823.3 c 0,-90.1 -73.04,-163.14 -163.14,-163.14 -90.11,0 -163.15,73.04 -163.15,163.14 0,90.1 73.04,163.15 163.15,163.15 90.1,0 163.14,-73.05 163.14,-163.15"
         style="fill:#406fbf;fill-opacity:1;fill-rule:nonzero;stroke:none"
         id="path124" />
      <path
         d="m 2239.91,2823.99 c 0.38,89.79 73.27,162.46 163.15,162.46 26.23,0 51.02,-6.19 72.98,-17.2 -17.78,-11.41 -35.47,-24.11 -52.83,-38.06 -57.12,-45.95 -121.92,-79.77 -183.3,-107.2"
         style="fill:#3563b7;fill-opacity:1;fill-rule:nonzero;stroke:none"
         id="path126" />
      <path
         d="m 2477.1,2669.29 c -130.01,-58.94 -323.36,-138.2 -432.18,-47.2 -161.35,134.9 163.02,135.96 378.29,309.1 162.03,130.31 352.58,149.39 381.79,69.43 47.87,-131.05 -93.53,-225.08 -327.9,-331.33"
         style="fill:#406fbf;fill-opacity:1;fill-rule:nonzero;stroke:none"
         id="path128" />
      <path
         d="m 2619.85,2739.58 c 0,0 0,0 0.01,0.01 3.98,2.19 7.93,4.39 11.82,6.59 -3.89,-2.21 -7.83,-4.4 -11.83,-6.6"
         style="fill:#c3c5c2;fill-opacity:1;fill-rule:nonzero;stroke:none"
         id="path130" />
      <path
         d="m 2186.8,2581.12 c 4.9,65.58 49.3,144.62 88.48,197.68 -1.56,-4.42 -2.95,-9.04 -4.17,-13.84 -27.14,-107.11 23.94,-127.05 8.27,-169.5 -31.34,-7.85 -62.6,-13.13 -92.58,-14.34 m 433.06,158.47 c 3.63,6.42 5.7,13.84 5.7,21.75 0,15.51 -7.98,29.16 -20.07,37.05 1.72,19.1 1.44,37.52 -3.38,53.16 23.58,-26.17 39.07,-66.11 38.39,-100.33 -2.91,-1.68 -5.85,-3.36 -8.82,-5.04 -3.89,-2.2 -7.84,-4.4 -11.82,-6.59"
         style="fill:#3563b7;fill-opacity:1;fill-rule:nonzero;stroke:none"
         id="path132" />
      <path
         d="m 2450.71,2886.17 c 0,0 -148.49,1.58 -179.6,-121.21 -31.11,-122.77 40.56,-131.01 -3.33,-189.9 -43.89,-58.89 -86.11,-84.44 -75,-133.33 11.11,-48.89 -101.91,-58.28 -91.67,-130.66 32.22,-227.78 536.55,-162.69 541.38,0.79 4.83,163.47 -120.75,154.31 -66.34,208.76 54.41,54.44 67.18,107.77 23.85,148.33 -43.33,40.55 110.31,280.55 -149.29,217.22"
         style="fill:#17282f;fill-opacity:1;fill-rule:nonzero;stroke:none"
         id="path134" />
      <path
         d="m 2660.26,2447.86 c 0,0 69.93,-17.65 3.58,-515.17 l -342.76,-9.82 c 22.22,170.52 -6.64,290.52 -60.92,453.88 -10.16,30.57 12.28,62.64 44,68.24 25.01,4.42 55.56,8.92 86.5,11.31 57.6,4.42 104.8,7.62 155.64,4.45 67.02,-4.19 113.96,-12.89 113.96,-12.89"
         style="fill:#406fbf;fill-opacity:1;fill-rule:nonzero;stroke:none"
         id="path136" />
      <path
         d="m 2301.9,2237.12 c -8.8,35.1 -19.5,71 -31.8,109.1 l 0.05,0.03 c 12.27,-38.11 22.97,-74.04 31.75,-109.12 0,-0.01 0,-0.01 0,-0.01"
         style="fill:#111d23;fill-opacity:1;fill-rule:nonzero;stroke:none"
         id="path138" />
      <path
         d="m 2301.9,2237.13 c -8.78,35.08 -19.48,71.01 -31.75,109.12 l 57.35,38.77 c 1.1,-17.2 -9.3,-95.19 -25.6,-147.89"
         style="fill:#3563b7;fill-opacity:1;fill-rule:nonzero;stroke:none"
         id="path140" />
      <path
         d="m 2401.06,2631.99 c 11.25,-49.8 23.68,-141.28 -10.4,-175.69 0,0 39.43,-77.91 166.09,-129.57 49.07,85.55 -10.45,134.02 -10.45,134.02 -56.23,11.73 -55.97,53.21 -47.36,92.4 l -97.88,78.84"
         style="fill:#f9a8b3;fill-opacity:1;fill-rule:nonzero;stroke:none"
         id="path142" />
      <path
         d="m 2494.89,2525.43 c -0.01,0 -0.01,0 -0.02,0 0.04,0.69 0.08,1.38 0.13,2.07 -0.05,-0.69 -0.08,-1.38 -0.11,-2.07"
         style="fill:#111d23;fill-opacity:1;fill-rule:nonzero;stroke:none"
         id="path144" />
      <path
         d="m 2494.87,2525.43 c -21.38,2.47 -53.98,20.59 -56.99,42.8 1.47,-0.82 2.98,-1.64 4.52,-2.45 18.63,-9.8 37.76,-14.39 56.06,-14.59 -1.7,-7.92 -2.98,-15.9 -3.46,-23.69 -0.05,-0.69 -0.09,-1.38 -0.13,-2.07"
         style="fill:#d8898c;fill-opacity:1;fill-rule:nonzero;stroke:none"
         id="path146" />
      <path
         d="m 2347.61,2705.65 c 30.33,-78.11 41.5,-111.82 94.79,-139.87 80.17,-42.19 169.48,12.15 163.1,97.75 -5.74,77.04 -54.37,191.84 -142.49,198.65 -86.81,6.71 -145.73,-78.41 -115.4,-156.53"
         style="fill:#f9a8b3;fill-opacity:1;fill-rule:nonzero;stroke:none"
         id="path148" />
      <path
         d="m 2449.4,2838.72 c 6.17,-54.18 -36.07,-137.55 -82.73,-173.1 1.77,-47.21 -82.23,-6.5 -68.89,70.64 13.33,77.13 141.06,195.12 151.62,102.46"
         style="fill:#17282f;fill-opacity:1;fill-rule:nonzero;stroke:none"
         id="path150" />
      <path
         d="m 2451.34,2709.91 -149.08,-62.54 c -2.01,-0.84 -4.34,0.12 -5.18,2.12 -0.84,2.01 0.11,4.34 2.12,5.18 l 149.08,62.54 c 2.01,0.84 4.34,-0.11 5.18,-2.12 0.84,-2 -0.11,-4.34 -2.12,-5.18"
         style="fill:#17282f;fill-opacity:1;fill-rule:nonzero;stroke:none"
         id="path152" />
      <path
         d="m 2410,2830.06 c 24.63,-27.45 186.16,-41.51 165.47,3.33 -29.74,64.42 -226.76,64.96 -165.47,-3.33"
         style="fill:#17282f;fill-opacity:1;fill-rule:nonzero;stroke:none"
         id="path154" />
      <path
         d="m 2348.84,2636.57 c 9.69,-14.42 25.14,-23.01 39.19,-25.53 21.13,-3.79 29.67,15.6 22.1,34.49 -6.82,17 -26.03,39.45 -46.43,34.68 -20.09,-4.71 -25.94,-27.15 -14.86,-43.64"
         style="fill:#f9a8b3;fill-opacity:1;fill-rule:nonzero;stroke:none"
         id="path156" />
      <path
         d="m 2663.84,1932.69 c 0,0 93.08,-508.82 15.92,-869.3 -51.68,-241.429 -221.93,-765.699 -221.93,-765.699 l -130.36,3.348 c 0,0 116.04,576.801 170.8,748.461 49.89,344.31 -59.95,876.73 -59.95,876.73 l 225.52,6.46"
         style="fill:#17282f;fill-opacity:1;fill-rule:nonzero;stroke:none"
         id="path158" />
      <path
         d="m 2508.48,1368.08 c -0.43,9.05 -0.9,18.08 -1.41,27.1 0.51,-9.02 0.98,-18.06 1.41,-27.1"
         style="fill:#c3c5c2;fill-opacity:1;fill-rule:nonzero;stroke:none"
         id="path160" />
      <path
         d="m 2509.3,1349.42 c -0.25,6.22 -0.52,12.44 -0.82,18.66 -0.43,9.04 -0.9,18.08 -1.41,27.1 -1.38,24.28 -3.05,48.46 -4.96,72.34 16.06,66.43 29.89,131.54 41.51,191.02 21.77,-121.4 -10.88,-243.04 -34.32,-309.12"
         style="fill:#111d23;fill-opacity:1;fill-rule:nonzero;stroke:none"
         id="path162" />
      <path
         d="m 2469.69,281.34 -153.89,16.879 7.84,53.84 157.1,-21.18 -11.05,-49.539"
         style="fill:#406fbf;fill-opacity:1;fill-rule:nonzero;stroke:none"
         id="path164" />
      <path
         d="m 2589.01,1929.54 c 0,0 -74.05,-567.73 -221.04,-863.77 C 2249.25,826.66 2064.34,426.691 2064.34,426.691 l -98.08,62.469 c 0,0 157.85,497.61 218.18,626.03 189.45,403.24 31.22,651.56 136.64,807.68 l 267.93,6.67"
         style="fill:#17282f;fill-opacity:1;fill-rule:nonzero;stroke:none"
         id="path166" />
      <path
         d="m 2074.9,417.719 -125.24,74.992 22.84,53.91 133.41,-82.039 -31.01,-46.863"
         style="fill:#406fbf;fill-opacity:1;fill-rule:nonzero;stroke:none"
         id="path168" />
      <path
         d="m 2315.37,1942.84 -14.58,-31.12 c -1.13,-2.42 1.76,-4.76 5.72,-4.65 l 359.46,10.3 c 3.09,0.09 5.61,1.67 5.75,3.62 l 2.21,30.77 c 0.15,2.13 -2.58,3.86 -5.96,3.76 l -347.09,-9.94 c -2.56,-0.08 -4.78,-1.18 -5.51,-2.74"
         style="fill:#406fbf;fill-opacity:1;fill-rule:nonzero;stroke:none"
         id="path170" />
      <path
         d="m 2650.72,1916.93 c 0.46,4.19 0.69,8.43 0.69,12.71 0.01,6.29 -0.49,12.67 -1.51,19.11 l -0.99,6.22 19.06,0.55 c 0.09,0 0.18,0 0.28,0 3.15,0 5.67,-1.58 5.69,-3.57 0,-0.06 -0.01,-0.13 -0.01,-0.19 l -2.21,-30.77 c -0.14,-1.95 -2.66,-3.53 -5.75,-3.62 l -15.25,-0.44"
         style="fill:#90b4e3;fill-opacity:1;fill-rule:nonzero;stroke:none"
         id="path172" />
      <path
         d="m 2363.1,1905.37 -9.3,-0.27 c -1.85,-0.05 -3.29,0.86 -3.2,2.03 l 3.22,39.98 c 0.1,1.18 1.69,2.18 3.54,2.23 l 9.29,0.27 c 1.86,0.05 3.29,-0.86 3.2,-2.04 l -3.22,-39.98 c -0.09,-1.17 -1.68,-2.17 -3.53,-2.22"
         style="fill:#17282f;fill-opacity:1;fill-rule:nonzero;stroke:none"
         id="path174" />
      <path
         d="m 2639.94,1913.3 -9.29,-0.27 c -1.86,-0.06 -3.29,0.86 -3.2,2.03 l 3.22,39.99 c 0.09,1.17 1.68,2.17 3.54,2.22 l 9.29,0.27 c 1.85,0.05 3.29,-0.86 3.2,-2.04 l -3.22,-39.98 c -0.1,-1.17 -1.69,-2.17 -3.54,-2.22"
         style="fill:#17282f;fill-opacity:1;fill-rule:nonzero;stroke:none"
         id="path176" />
      <path
         d="m 2501.52,1909.33 -9.3,-0.27 c -1.85,-0.05 -3.29,0.86 -3.19,2.03 l 3.22,39.99 c 0.09,1.17 1.68,2.17 3.53,2.23 l 9.3,0.26 c 1.85,0.05 3.29,-0.86 3.19,-2.03 l -3.21,-39.99 c -0.1,-1.16 -1.69,-2.16 -3.54,-2.22"
         style="fill:#17282f;fill-opacity:1;fill-rule:nonzero;stroke:none"
         id="path178" />
      <path
         d="m 2483.63,2724.15 c 2.07,-6.49 7.19,-10.65 11.43,-9.3 4.24,1.36 6,7.71 3.93,14.2 -2.07,6.49 -7.19,10.65 -11.43,9.29 -4.24,-1.35 -6,-7.7 -3.93,-14.19"
         style="fill:#17282f;fill-opacity:1;fill-rule:nonzero;stroke:none"
         id="path180" />
      <path
         d="m 2556.96,2747.56 c 2.07,-6.49 7.19,-10.65 11.43,-9.3 4.24,1.36 6,7.72 3.93,14.2 -2.08,6.49 -7.19,10.65 -11.43,9.3 -4.24,-1.35 -6,-7.71 -3.93,-14.2"
         style="fill:#17282f;fill-opacity:1;fill-rule:nonzero;stroke:none"
         id="path182" />
      <path
         d="m 2559.13,2760.8 14.15,9.47 c 0,0 -4.11,-14.73 -14.15,-9.47"
         style="fill:#17282f;fill-opacity:1;fill-rule:nonzero;stroke:none"
         id="path184" />
      <path
         d="m 2533.07,2728.04 c 0,0 19.93,-24.42 36.35,-34.03 -6.01,-10.72 -21.74,-11.72 -21.74,-11.72 l -14.61,45.75"
         style="fill:#f46878;fill-opacity:1;fill-rule:nonzero;stroke:none"
         id="path186" />
      <path
         d="m 2520.64,2647.11 c -23.51,-2.71 -38.75,9.43 -39.48,10.02 l -0.24,2.34 2.34,0.24 c 0.2,-0.15 20.09,-15.9 48.63,-6.77 0.9,0.31 1.81,-0.21 2.09,-1.07 l -1.08,-2.09 c -4.29,-1.37 -8.39,-2.23 -12.26,-2.67"
         style="fill:#17282f;fill-opacity:1;fill-rule:nonzero;stroke:none"
         id="path188" />
      <path
         d="m 2425.86,2757.62 -1.73,0.43 c -1.6,0.9 -2.16,2.93 -1.26,4.53 10.7,18.95 28.76,20.31 29.52,20.35 1.94,-0.01 3.4,-1.26 3.52,-3.09 0.13,-1.82 -1.26,-3.41 -3.08,-3.54 -0.63,-0.04 -15.3,-1.28 -24.17,-16.99 -0.59,-1.05 -1.67,-1.66 -2.8,-1.69"
         style="fill:#17282f;fill-opacity:1;fill-rule:nonzero;stroke:none"
         id="path190" />
      <path
         d="m 2568.35,2804.32 -1.65,-0.3 c -18.16,1.4 -27.48,-10.47 -27.57,-10.59 -1.12,-1.46 -3.21,-1.72 -4.66,-0.61 -1.46,1.12 -1.73,3.21 -0.61,4.66 0.46,0.61 11.65,14.86 33.35,13.18 1.83,-0.14 3.2,-1.75 3.06,-3.57 -0.1,-1.25 -0.87,-2.29 -1.92,-2.77"
         style="fill:#17282f;fill-opacity:1;fill-rule:nonzero;stroke:none"
         id="path192" />
      <path
         d="m 2544.25,2756.08 -1.64,-0.29 c -18.16,1.39 -27.48,-10.47 -27.57,-10.59 -1.13,-1.47 -3.21,-1.73 -4.66,-0.62 -1.46,1.12 -1.73,3.21 -0.62,4.67 0.47,0.61 11.66,14.85 33.36,13.16 1.83,-0.14 3.2,-1.73 3.06,-3.56 -0.1,-1.25 -0.87,-2.29 -1.93,-2.77"
         style="fill:#17282f;fill-opacity:1;fill-rule:nonzero;stroke:none"
         id="path194" />
      <path
         d="m 2331.83,2466.04 0.74,-20.39 c 115.03,4.19 212.54,-107.03 217.69,-248.44 5.15,-141.4 -84.01,-259.43 -199.03,-263.61 l 0.74,-20.49 c 124.22,4.52 220.55,132.02 214.98,284.71 -5.56,152.7 -110.9,272.75 -235.12,268.22"
         style="fill:#406fbf;fill-opacity:1;fill-rule:nonzero;stroke:none"
         id="path196" />
      <path
         d="m 2407.7,2431.5 c -21.65,9.25 -44.83,14.27 -68.84,14.27 v 0 c 24.01,0 47.19,-5.02 68.84,-14.27 v 0"
         style="fill:#90b4e3;fill-opacity:1;fill-rule:nonzero;stroke:none"
         id="path198" />
      <path
         d="m 2482.74,2375.9 c -21.44,24.5 -46.96,43.61 -75.04,55.6 v 0 c 28.08,-11.99 53.6,-31.1 75.04,-55.6"
         style="fill:#fcd0d6;fill-opacity:1;fill-rule:nonzero;stroke:none"
         id="path200" />
      <path
         d="m 2332.43,2449.6 -0.6,16.44 c 2.28,0.08 4.54,0.12 6.8,0.12 v 0 c -2.26,0 -4.52,-0.04 -6.8,-0.12 l 0.6,-16.44 v 0"
         style="fill:#849193;fill-opacity:1;fill-rule:nonzero;stroke:none"
         id="path202" />
      <path
         d="m 2332.57,2445.65 -0.14,3.95 v 0 l 0.14,-3.95 v 0"
         style="fill:#90b4e3;fill-opacity:1;fill-rule:nonzero;stroke:none"
         id="path204" />
      <path
         d="m 2550.31,2195.89 c -0.01,0.44 -0.03,0.88 -0.05,1.32 -2.57,70.64 -28.18,133.74 -67.52,178.69 -21.44,24.5 -46.96,43.61 -75.04,55.6 -21.65,9.25 -44.83,14.27 -68.84,14.27 v 0 0 c -2.09,0 -4.19,-0.04 -6.29,-0.12 l -0.14,3.95 -0.6,16.44 c 2.28,0.08 4.54,0.12 6.8,0.12 121.24,0 222.86,-118.43 228.32,-268.34 0.02,-0.44 0.03,-0.88 0.05,-1.33 l -16.69,-0.6"
         style="fill:#90b4e3;fill-opacity:1;fill-rule:nonzero;stroke:none"
         id="path206" />
      <path
         d="m 2331.83,2466.04 0.74,-20.39 c -115.02,-4.18 -204.18,-122.21 -199.03,-263.62 5.15,-141.4 102.66,-252.62 217.69,-248.43 l 0.74,-20.49 c -124.21,-4.53 -229.56,115.62 -235.12,268.32 -5.56,152.7 90.76,280.09 214.98,284.61"
         style="fill:#406fbf;fill-opacity:1;fill-rule:nonzero;stroke:none"
         id="path208" />
      <path
         d="m 2116.9,2180.1 c -0.02,0.45 -0.03,0.88 -0.05,1.33 -0.91,25.1 0.92,49.51 5.19,72.8 v 0 c -4.27,-23.29 -6.1,-47.7 -5.19,-72.8 0.02,-0.45 0.03,-0.88 0.05,-1.33 v 0"
         style="fill:#ffffff;fill-opacity:1;fill-rule:nonzero;stroke:none"
         id="path210" />
      <path
         d="m 2122.04,2254.23 v 0 c 21.67,118.45 105.99,208.03 209.79,211.81 -103.8,-3.78 -188.12,-93.36 -209.79,-211.81"
         style="fill:#849193;fill-opacity:1;fill-rule:nonzero;stroke:none"
         id="path212" />
      <path
         d="m 2116.9,2180.1 c -0.02,0.45 -0.03,0.88 -0.05,1.33 -0.91,25.1 0.92,49.51 5.19,72.8 21.67,118.45 105.99,208.03 209.79,211.81 v 0 l 0.74,-20.39 c -4.26,-0.15 -8.5,-0.46 -12.69,-0.93 -108.82,-12.05 -191.3,-126.52 -186.34,-262.69 0.01,-0.44 0.03,-0.88 0.05,-1.32 l -16.69,-0.61"
         style="fill:#90b4e3;fill-opacity:1;fill-rule:nonzero;stroke:none"
         id="path214" />
      <path
         d="m 2536.35,1810.72 -362.76,-13.21 c -71.85,-2.62 -129.72,58.41 -123.32,130 l 5.64,62.14 10.63,117.67 3.85,42.57 c 1.51,16.36 14.85,29.06 31.24,29.65 l 479.88,17.48 c 16.49,0.6 30.83,-11.18 33.42,-27.4 l 7.54,-47.55 20.02,-126.66 7.41,-46.66 c 11.28,-70.84 -41.9,-135.42 -113.55,-138.03"
         style="fill:#406fbf;fill-opacity:1;fill-rule:nonzero;stroke:none"
         id="path216" />
      <path
         d="m 2169.13,1797.43 c -66.16,0 -119.36,53.92 -119.34,119.28 0,3.56 0.16,7.17 0.48,10.8 l 5.64,62.14 10.63,117.67 3.85,42.57 c 1.51,16.36 14.85,29.06 31.24,29.65 l 479.88,17.48 c 0.41,0.02 0.81,0.02 1.21,0.02 15.98,0 29.69,-11.6 32.21,-27.42 l 7.54,-47.55 20.02,-126.66 7.41,-46.66 c 1.02,-6.44 1.52,-12.82 1.51,-19.11 -0.03,-50.79 -32.51,-95.5 -79.28,-112.12 -11.2,-3.97 -23.21,-6.34 -35.78,-6.8 l -253.46,-9.23 -109.3,-3.98 c -1.49,-0.05 -2.98,-0.08 -4.46,-0.08 m -102.59,309.89 -10.63,-117.67 c 27.57,-7.13 40.52,-14.47 79.71,-14.47 4.18,0 8.65,0.08 13.47,0.26 67.66,2.46 66.68,29.44 134.33,31.91 2.96,0.1 5.8,0.15 8.52,0.15 28.31,0 43.97,-5.59 59.62,-11.18 15.65,-5.6 31.28,-11.19 59.57,-11.19 2.71,0 5.53,0.05 8.48,0.16 67.66,2.46 66.68,29.45 134.23,31.91 2.14,0.08 4.22,0.11 6.24,0.11 40.76,0 57.38,-15.28 82.41,-21.9 v 0 0 l -20.02,126.66 c -16.33,4.82 -30.95,8.71 -59.39,8.71 -4.14,0 -8.59,-0.09 -13.37,-0.26 -67.65,-2.46 -66.66,-29.55 -134.32,-32.01 -2.95,-0.11 -5.77,-0.16 -8.48,-0.16 -28.34,0 -44.01,5.62 -59.66,11.24 -15.65,5.62 -31.3,11.23 -59.6,11.23 -2.7,0 -5.52,-0.05 -8.46,-0.15 -67.65,-2.47 -66.67,-29.55 -134.22,-32.01 -2.15,-0.08 -4.23,-0.12 -6.25,-0.12 -34.99,0 -52.14,11.28 -72.18,18.78"
         style="fill:#6d97d6;fill-opacity:1;fill-rule:nonzero;stroke:none"
         id="path218" />
      <path
         d="m 2135.62,1975.18 c -39.19,0 -52.14,7.34 -79.71,14.47 l 10.63,117.67 c 20.04,-7.5 37.19,-18.78 72.18,-18.78 2.02,0 4.1,0.04 6.25,0.12 67.55,2.46 66.57,29.54 134.22,32.01 2.94,0.1 5.76,0.15 8.46,0.15 28.3,0 43.95,-5.61 59.6,-11.23 15.65,-5.62 31.32,-11.24 59.66,-11.24 2.71,0 5.53,0.05 8.48,0.16 67.66,2.46 66.67,29.55 134.32,32.01 4.78,0.17 9.23,0.26 13.37,0.26 28.44,0 43.06,-3.89 59.39,-8.71 l 20.02,-126.66 c -25.03,6.62 -41.65,21.9 -82.41,21.9 -2.02,0 -4.1,-0.03 -6.24,-0.11 -67.55,-2.46 -66.57,-29.45 -134.23,-31.91 -2.95,-0.11 -5.77,-0.16 -8.48,-0.16 -28.29,0 -43.92,5.59 -59.57,11.19 -15.65,5.59 -31.31,11.18 -59.62,11.18 -2.72,0 -5.56,-0.05 -8.52,-0.15 -67.65,-2.47 -66.67,-29.45 -134.33,-31.91 -4.82,-0.18 -9.29,-0.26 -13.47,-0.26"
         style="fill:#85ace0;fill-opacity:1;fill-rule:nonzero;stroke:none"
         id="path220" />
      <path
         d="m 2327.64,2362.06 c -30.13,-36.28 -60.68,-74.7 -88.51,-113.01 -13.83,-19.3 -27.01,-38.9 -38.9,-58.39 -11.72,-19.33 -22.28,-39.71 -27.55,-56.38 -2.47,-8.33 -3.14,-12.99 -2.61,-21.26 0.55,-7.86 2.55,-17.05 5.77,-26.5 6.55,-18.97 17.09,-39.05 29.29,-58.42 12.15,-19.54 26.06,-38.7 40.74,-57.53 14.49,-18.83 30.44,-37.55 45.97,-55.08 l 0.74,-0.83 c 8.28,-9.35 7.42,-23.63 -1.93,-31.92 -8.12,-7.19 -19.98,-7.47 -28.38,-1.29 -41.95,30.83 -79.6,64.88 -113.43,106.09 -16.53,20.85 -32.45,43.06 -44.55,70.01 -6,13.5 -11.27,28.17 -14.03,44.84 -2.95,16.24 -2.07,36.72 1.86,52.31 7.52,31.24 19.57,55.46 32.13,79.13 12.54,23.58 26.56,45.41 40.98,66.75 28.96,42.78 59.57,82.36 93.79,121.3 16.6,18.88 45.35,20.74 64.23,4.15 18.55,-16.3 20.67,-44.33 5.02,-63.22 l -0.63,-0.75"
         style="fill:#f9a8b3;fill-opacity:1;fill-rule:nonzero;stroke:none"
         id="path222" />
      <path
         d="m 2274.2,1930.96 69.58,-29.05 -55.78,-49.1 c 0,0 -42.63,25.26 -43.44,60.35 l 29.64,17.8"
         style="fill:#f9a8b3;fill-opacity:1;fill-rule:nonzero;stroke:none"
         id="path224" />
      <path
         d="m 2369.85,1852.81 -57.24,-34.11 -24.61,34.11 55.78,49.1 26.07,-49.1"
         style="fill:#f9a8b3;fill-opacity:1;fill-rule:nonzero;stroke:none"
         id="path226" />
      <path
         d="m 1997.67,330.898 c 7.94,-13.347 16.04,-21.519 22.03,-22.07 2.58,-0.226 4.83,0.883 6.92,3.41 1.2,1.453 1.04,2.551 0.81,3.25 -2.02,6.192 -19.63,12.473 -29.76,15.41 z m 25.02,-25.16 c -1.06,-0.25 -2.16,-0.316 -3.3,-0.218 -10.53,0.972 -21.2,17.492 -26.63,27.25 l 0.13,1.82 1.73,0.601 c 3.34,-0.851 32.68,-8.589 35.97,-18.671 0.5,-1.54 0.66,-3.899 -1.41,-6.411 -1.94,-2.339 -4.12,-3.808 -6.49,-4.371"
         style="fill:#406fbf;fill-opacity:1;fill-rule:nonzero;stroke:none"
         id="path228" />
      <path
         d="m 1997.77,334.43 c 9.71,-1.668 27.37,0.09 31.23,5.308 0.64,0.871 1.17,2.172 -0.46,4.442 -1.23,1.742 -2.9,2.699 -5.08,2.929 -8.2,0.911 -20.51,-8.398 -25.69,-12.679 z m 22.91,-2.36 c -9.24,-2.191 -21.28,-1.929 -26.98,-0.082 l -1.11,1.231 0.5,1.59 c 0.76,0.679 18.69,16.921 30.72,15.613 3.14,-0.344 5.65,-1.793 7.45,-4.313 2.8,-3.937 1.46,-6.91 0.42,-8.339 -1.97,-2.68 -6.09,-4.532 -11,-5.7"
         style="fill:#406fbf;fill-opacity:1;fill-rule:nonzero;stroke:none"
         id="path230" />
      <path
         d="m 2437.69,189.371 c 10.79,-2.019 30.74,-4.641 38.96,1.57 2.28,1.719 3.47,3.981 3.64,6.911 0.07,1.347 -0.45,1.886 -0.92,2.199 -5.11,3.48 -26.59,-4.039 -41.68,-10.68 z m 21.63,-5.699 c -9.62,0 -20.08,1.859 -27.34,3.469 l -1.3,1.441 0.95,1.688 c 4.12,1.929 40.45,18.722 49.61,12.531 1.17,-0.781 2.52,-2.321 2.36,-5.141 -0.22,-3.91 -1.88,-7.058 -4.94,-9.371 -4.54,-3.43 -11.67,-4.617 -19.34,-4.617"
         style="fill:#406fbf;fill-opacity:1;fill-rule:nonzero;stroke:none"
         id="path232" />
      <path
         d="m 2457.25,221 c -12.6,0 -19.94,-20.859 -22.38,-29.211 11.84,6.199 28.21,21.152 27.42,26.981 -0.06,0.429 -0.23,1.73 -3.66,2.14 z m -24.91,-33.898 -1.07,0.398 -0.55,1.641 c 0.35,1.519 8.59,37.351 28.31,35.07 4.94,-0.59 6.29,-3.039 6.56,-4.992 1.23,-9.117 -21.68,-27.52 -32.62,-31.989 l -0.63,-0.128"
         style="fill:#406fbf;fill-opacity:1;fill-rule:nonzero;stroke:none"
         id="path234" />
      <path
         d="m 2485.8,2737.39 14.15,9.47 c 0,0 -4.11,-14.73 -14.15,-9.47"
         style="fill:#17282f;fill-opacity:1;fill-rule:nonzero;stroke:none"
         id="path236" />
      <path
         d="m 2527.63,2728.05 c 0,-24.43 -19.8,-44.23 -44.23,-44.23 -24.42,0 -44.23,19.8 -44.23,44.23 0,24.43 19.81,44.23 44.23,44.23 24.43,0 44.23,-19.8 44.23,-44.23"
         style="fill:#17282f;fill-opacity:1;fill-rule:nonzero;stroke:none"
         id="path238" />
      <path
         d="m 2483.43,2683.79 c -3.93,0 -7.8,0.51 -11.47,1.53 3.65,-0.98 7.49,-1.5 11.44,-1.5 2.22,0 4.4,0.17 6.53,0.48 l -0.01,-0.03 c -2.04,-0.36 -4.32,-0.48 -6.49,-0.48 m 20.8,83.29 c -0.35,0.19 -0.71,0.37 -1.06,0.55 0.36,-0.17 0.71,-0.35 1.06,-0.53 v -0.02"
         style="fill:#fabec6;fill-opacity:1;fill-rule:nonzero;stroke:none"
         id="path240" />
      <path
         d="m 2483.4,2683.82 c -3.95,0 -7.79,0.52 -11.44,1.5 -1.38,0.38 -2.72,0.83 -4.03,1.36 l 14.78,85.58 h 0.72 c 7.04,0 13.75,-1.71 19.74,-4.63 0.35,-0.18 0.71,-0.36 1.06,-0.55 l -14.3,-82.78 c -2.13,-0.31 -4.31,-0.48 -6.53,-0.48"
         style="fill:#57666b;fill-opacity:1;fill-rule:nonzero;stroke:none"
         id="path242" />
      <path
         d="m 2495.09,2685.35 0.01,0.04 c 3.97,1.08 7.72,2.71 11.16,4.79 -3.44,-2.1 -7.23,-3.77 -11.17,-4.83"
         style="fill:#fabec6;fill-opacity:1;fill-rule:nonzero;stroke:none"
         id="path244" />
      <path
         d="m 2495.1,2685.39 13.58,78.82 c 4.2,-2.76 7.81,-6.37 10.69,-10.46 l -10.57,-61.9 c -0.82,-0.58 -1.67,-1.14 -2.54,-1.67 -3.44,-2.08 -7.19,-3.71 -11.16,-4.79"
         style="fill:#57666b;fill-opacity:1;fill-rule:nonzero;stroke:none"
         id="path246" />
      <path
         d="m 2625.56,2761.34 c 0,-24.43 -19.8,-44.23 -44.23,-44.23 -24.42,0 -44.23,19.8 -44.23,44.23 0,24.42 19.81,44.23 44.23,44.23 24.43,0 44.23,-19.81 44.23,-44.23"
         style="fill:#17282f;fill-opacity:1;fill-rule:nonzero;stroke:none"
         id="path248" />
      <path
         d="m 2581.36,2717.08 c -3.91,0 -7.75,0.5 -11.4,1.5 3.63,-0.96 7.44,-1.47 11.37,-1.47 2.22,0 4.4,0.16 6.53,0.47 l -0.01,-0.03 c -2.04,-0.36 -4.32,-0.47 -6.49,-0.47"
         style="fill:#fabec6;fill-opacity:1;fill-rule:nonzero;stroke:none"
         id="path250" />
      <path
         d="m 2602.16,2800.37 c -0.25,0.13 -0.5,0.26 -0.75,0.39 0.25,-0.12 0.5,-0.25 0.75,-0.38 v -0.01"
         style="fill:#57666b;fill-opacity:1;fill-rule:nonzero;stroke:none"
         id="path252" />
      <path
         d="m 2581.33,2717.11 c -3.93,0 -7.74,0.51 -11.37,1.47 -1.4,0.39 -2.77,0.84 -4.1,1.38 l 14.78,85.58 h 0.72 c 7.16,0 13.98,-1.77 20.05,-4.78 0.25,-0.13 0.5,-0.26 0.75,-0.39 l -14.3,-82.79 c -2.13,-0.31 -4.31,-0.47 -6.53,-0.47"
         style="fill:#57666b;fill-opacity:1;fill-rule:nonzero;stroke:none"
         id="path254" />
      <path
         d="m 2595.24,2719.3 c -0.01,0.01 -0.01,0.02 -0.01,0.03 3.23,1.07 6.3,2.5 9.15,4.25 -2.85,-1.76 -5.93,-3.22 -9.14,-4.28"
         style="fill:#ffffff;fill-opacity:1;fill-rule:nonzero;stroke:none"
         id="path256" />
      <path
         d="m 2593.02,2718.63 0.01,0.04 c 0.74,0.2 1.47,0.42 2.2,0.66 0,-0.01 0,-0.02 0.01,-0.03 -0.73,-0.25 -1.47,-0.47 -2.22,-0.67"
         style="fill:#fabec6;fill-opacity:1;fill-rule:nonzero;stroke:none"
         id="path258" />
      <path
         d="m 2593.03,2718.67 13.58,78.82 c 4.2,-2.76 7.81,-6.37 10.7,-10.45 l -10.58,-61.91 c -0.76,-0.54 -1.55,-1.06 -2.35,-1.55 -2.85,-1.75 -5.92,-3.18 -9.15,-4.25 -0.73,-0.24 -1.46,-0.46 -2.2,-0.66"
         style="fill:#57666b;fill-opacity:1;fill-rule:nonzero;stroke:none"
         id="path260" />
    </g>
  </g>
</svg>
